<?xml version="1.0" encoding="UTF-8"?>
<svg id="Capa_2" data-name="Capa 2" xmlns="http://www.w3.org/2000/svg" xmlns:xlink="http://www.w3.org/1999/xlink" viewBox="0 0 595 225">
  <defs>
    <style>
      .cls-1 {
        stroke-width: 1.43px;
      }

      .cls-1, .cls-2, .cls-3 {
        fill: #fff;
        stroke: #fff;
      }

      .cls-1, .cls-2, .cls-3, .cls-4 {
        stroke-miterlimit: 10;
      }

      .cls-2 {
        stroke-width: .21px;
      }

      .cls-3 {
        stroke-width: .38px;
      }

      .cls-4 {
        fill: #de1a4d;
        filter: url(#drop-shadow-1);
        stroke: #de1a4d;
        stroke-width: .76px;
      }
    </style>
    <filter id="drop-shadow-1" filterUnits="userSpaceOnUse">
      <feOffset dx="0" dy="0"/>
      <feGaussianBlur result="blur" stdDeviation="14.21"/>
      <feFlood flood-color="#a3a3a3" flood-opacity="1"/>
      <feComposite in2="blur" operator="in"/>
      <feComposite in="SourceGraphic"/>
    </filter>
  </defs>
  <g id="Capa_1-2" data-name="Capa 1">
    <g>
      <rect class="cls-4" x="43.3" y="43.95" width="507.41" height="136.44" rx="68.22" ry="68.22"/>
      <g>
        <g>
          <circle class="cls-2" cx="369.57" cy="126.38" r=".83"/>
          <circle class="cls-2" cx="378.86" cy="133.41" r="1.03"/>
          <circle class="cls-2" cx="381.59" cy="132.11" r=".72"/>
          <circle class="cls-2" cx="367.84" cy="133.58" r=".62"/>
          <circle class="cls-2" cx="368.31" cy="135.82" r=".83"/>
          <circle class="cls-2" cx="374.91" cy="138.97" r=".83"/>
          <circle class="cls-2" cx="369.07" cy="138.3" r=".93"/>
          <circle class="cls-2" cx="372.58" cy="140.13" r=".93"/>
          <circle class="cls-2" cx="370.04" cy="141.03" r="1.14"/>
          <circle class="cls-2" cx="377.18" cy="137.95" r=".62"/>
          <circle class="cls-2" cx="370.15" cy="129.25" r="1.03"/>
          <circle class="cls-2" cx="371.32" cy="132.56" r="1.24"/>
          <circle class="cls-2" cx="375.81" cy="134.7" r="1.24"/>
          <circle class="cls-2" cx="372.37" cy="136.14" r="1.45"/>
        </g>
        <g>
          <circle class="cls-2" cx="394.39" cy="96.72" r=".83"/>
          <circle class="cls-2" cx="383.15" cy="93.67" r="1.03"/>
          <circle class="cls-2" cx="381.11" cy="95.89" r=".72"/>
          <circle class="cls-2" cx="393.31" cy="89.4" r=".62"/>
          <circle class="cls-2" cx="392.04" cy="87.49" r=".83"/>
          <circle class="cls-2" cx="384.74" cy="87.03" r=".83"/>
          <circle class="cls-2" cx="390.41" cy="85.48" r=".93"/>
          <circle class="cls-2" cx="386.47" cy="85.09" r=".93"/>
          <circle class="cls-2" cx="388.49" cy="83.31" r="1.14"/>
          <circle class="cls-2" cx="383.02" cy="88.83" r=".62"/>
          <circle class="cls-2" cx="392.79" cy="94.27" r="1.03"/>
          <circle class="cls-2" cx="390.46" cy="91.64" r="1.24"/>
          <circle class="cls-2" cx="385.5" cy="91.33" r="1.24"/>
          <circle class="cls-2" cx="388.15" cy="88.71" r="1.45"/>
        </g>
        <g>
          <path class="cls-1" d="M113.01,85.65h9.44c3.21.1,5.71,1.15,7.49,3.15,1.78,2,2.55,4.43,2.31,7.31-.17,2.1-1.12,4.14-2.84,6.12-1.73,1.98-3.62,3.17-5.69,3.58,2.06.37,3.66,1.57,4.77,3.61,1.12,2.03,1.47,4.16,1.07,6.4-.54,3.01-2.01,5.51-4.39,7.49-2.39,1.98-5.34,2.97-8.86,2.97h-10.46l7.16-40.62ZM109.91,106.26l-3.4,19.45h9.9c3.18,0,5.96-.96,8.33-2.87,2.37-1.91,3.79-4.26,4.26-7.03.41-2.33-.04-4.51-1.35-6.52-1.3-2.01-3.09-3.02-5.36-3.02h-12.39ZM113.46,86.21l-3.4,19.44h11.52c2.3,0,4.51-1.01,6.63-3.05,2.11-2.03,3.27-4.2,3.48-6.5.24-2.81-.53-5.16-2.28-7.06-1.76-1.9-4.21-2.84-7.36-2.84h-8.58Z"/>
          <path class="cls-1" d="M157.02,100.88l-2.89,16.55c-.51,2.91-1.79,5.37-3.86,7.36-2.06,2-4.5,3-7.31,3-3.32,0-5.86-1-7.64-3-1.78-2-2.41-4.45-1.9-7.36l2.89-16.55h.56l-2.89,16.55c-.51,2.74.08,5.06,1.78,6.96,1.69,1.9,4.13,2.84,7.31,2.84,2.64,0,4.92-.94,6.85-2.82,1.93-1.88,3.15-4.21,3.66-6.98l2.89-16.55h.56Z"/>
          <path class="cls-1" d="M167.53,112.25c-.98-.27-1.73-.5-2.23-.69-.51-.19-1.02-.46-1.52-.84-.51-.37-.9-.85-1.17-1.42-.54-.88-.74-2.05-.61-3.5.27-1.79,1.12-3.32,2.54-4.57,1.42-1.25,3.01-1.88,4.77-1.88,1.62,0,2.97.53,4.04,1.6,1.07,1.07,1.6,2.38,1.6,3.94l-.56.15c0-1.46-.49-2.67-1.47-3.66-.98-.98-2.22-1.47-3.71-1.47-1.59,0-3.04.58-4.34,1.73-1.3,1.15-2.07,2.54-2.31,4.16-.1,1.29.05,2.35.46,3.2.37.75.89,1.29,1.55,1.62.66.34,1.68.71,3.07,1.12,1.29.37,2.23.66,2.82.86.59.2,1.22.54,1.88,1.02.66.47,1.16,1.07,1.5,1.78.68,1.42.86,2.89.56,4.42-.27,2.2-1.29,4.08-3.07,5.64s-3.77,2.34-5.97,2.34-3.82-.72-5.18-2.16c-1.35-1.44-2.01-3.26-1.98-5.46l.56-.1c-.03,2.03.58,3.73,1.85,5.1,1.27,1.37,2.89,2.06,4.85,2.06,2.06,0,3.91-.73,5.53-2.18,1.62-1.46,2.57-3.2,2.84-5.23.27-1.49.1-2.86-.51-4.11-.3-.64-.77-1.18-1.4-1.62-.63-.44-1.19-.75-1.7-.94-.51-.19-1.41-.48-2.69-.89Z"/>
          <path class="cls-1" d="M186.93,112.25c-.98-.27-1.73-.5-2.23-.69-.51-.19-1.02-.46-1.52-.84-.51-.37-.9-.85-1.17-1.42-.54-.88-.74-2.05-.61-3.5.27-1.79,1.12-3.32,2.54-4.57,1.42-1.25,3.01-1.88,4.77-1.88,1.62,0,2.97.53,4.04,1.6,1.07,1.07,1.6,2.38,1.6,3.94l-.56.15c0-1.46-.49-2.67-1.47-3.66-.98-.98-2.22-1.47-3.71-1.47-1.59,0-3.04.58-4.34,1.73-1.3,1.15-2.07,2.54-2.31,4.16-.1,1.29.05,2.35.46,3.2.37.75.89,1.29,1.55,1.62.66.34,1.68.71,3.07,1.12,1.29.37,2.23.66,2.82.86.59.2,1.22.54,1.88,1.02.66.47,1.16,1.07,1.5,1.78.68,1.42.86,2.89.56,4.42-.27,2.2-1.29,4.08-3.07,5.64s-3.77,2.34-5.97,2.34-3.82-.72-5.18-2.16c-1.35-1.44-2.01-3.26-1.98-5.46l.56-.1c-.03,2.03.58,3.73,1.85,5.1,1.27,1.37,2.89,2.06,4.85,2.06,2.06,0,3.91-.73,5.53-2.18,1.62-1.46,2.57-3.2,2.84-5.23.27-1.49.1-2.86-.51-4.11-.3-.64-.77-1.18-1.4-1.62-.63-.44-1.19-.75-1.7-.94-.51-.19-1.41-.48-2.69-.89Z"/>
          <path class="cls-1" d="M197.79,126.26h-.61l4.47-25.39h.61l-4.47,25.39Z"/>
          <path class="cls-1" d="M209.11,100.88l-.96,5.48c1.05-2.06,2.59-3.75,4.62-5.05,2.03-1.3,4.16-1.95,6.4-1.95,2.88,0,5.14,1.02,6.8,3.05,1.66,2.03,2.23,4.47,1.73,7.31l-2.89,16.55h-.56l2.89-16.55c.47-2.67-.08-4.98-1.65-6.91-1.57-1.93-3.72-2.89-6.42-2.89s-5.15.96-7.41,2.87c-2.27,1.91-3.64,4.22-4.11,6.93l-2.89,16.55h-.56l4.47-25.39h.56Z"/>
          <path class="cls-1" d="M251.56,123.98l.3.41c-2.74,2.27-5.82,3.4-9.24,3.4-3.93,0-7.08-1.39-9.47-4.16-2.39-2.78-3.31-6.13-2.77-10.05.54-3.93,2.39-7.28,5.56-10.05s6.71-4.16,10.64-4.16,6.82,1.36,8.88,4.09c2.06,2.72,2.83,6.1,2.28,10.13l-.15.46h-26.71c-.37,3.66.58,6.77,2.87,9.34s5.27,3.86,8.96,3.86c3.18,0,6.13-1.08,8.83-3.25ZM230.99,113.47h26.2c.54-3.86-.15-7.06-2.08-9.6-2-2.64-4.87-3.96-8.63-3.96s-7.1,1.33-10.13,3.99-4.81,5.85-5.36,9.57Z"/>
          <path class="cls-1" d="M269.02,112.25c-.98-.27-1.73-.5-2.23-.69-.51-.19-1.02-.46-1.52-.84-.51-.37-.9-.85-1.17-1.42-.54-.88-.74-2.05-.61-3.5.27-1.79,1.12-3.32,2.54-4.57,1.42-1.25,3.01-1.88,4.77-1.88,1.62,0,2.97.53,4.04,1.6,1.07,1.07,1.6,2.38,1.6,3.94l-.56.15c0-1.46-.49-2.67-1.47-3.66-.98-.98-2.22-1.47-3.71-1.47-1.59,0-3.04.58-4.34,1.73-1.3,1.15-2.07,2.54-2.31,4.16-.1,1.29.05,2.35.46,3.2.37.75.89,1.29,1.55,1.62.66.34,1.68.71,3.07,1.12,1.29.37,2.23.66,2.82.86.59.2,1.22.54,1.88,1.02.66.47,1.16,1.07,1.5,1.78.68,1.42.86,2.89.56,4.42-.27,2.2-1.29,4.08-3.07,5.64s-3.77,2.34-5.97,2.34-3.82-.72-5.18-2.16c-1.35-1.44-2.01-3.26-1.98-5.46l.56-.1c-.03,2.03.58,3.73,1.85,5.1,1.27,1.37,2.89,2.06,4.85,2.06,2.06,0,3.91-.73,5.53-2.18,1.62-1.46,2.57-3.2,2.84-5.23.27-1.49.1-2.86-.51-4.11-.3-.64-.77-1.18-1.4-1.62-.63-.44-1.19-.75-1.7-.94-.51-.19-1.41-.48-2.69-.89Z"/>
          <path class="cls-1" d="M288.41,112.25c-.98-.27-1.73-.5-2.23-.69-.51-.19-1.02-.46-1.52-.84-.51-.37-.9-.85-1.17-1.42-.54-.88-.74-2.05-.61-3.5.27-1.79,1.12-3.32,2.54-4.57,1.42-1.25,3.01-1.88,4.77-1.88,1.62,0,2.97.53,4.04,1.6,1.07,1.07,1.6,2.38,1.6,3.94l-.56.15c0-1.46-.49-2.67-1.47-3.66-.98-.98-2.22-1.47-3.71-1.47-1.59,0-3.04.58-4.34,1.73-1.3,1.15-2.07,2.54-2.31,4.16-.1,1.29.05,2.35.46,3.2.37.75.89,1.29,1.55,1.62.66.34,1.68.71,3.07,1.12,1.29.37,2.23.66,2.82.86.59.2,1.22.54,1.88,1.02.66.47,1.16,1.07,1.5,1.78.68,1.42.86,2.89.56,4.42-.27,2.2-1.29,4.08-3.07,5.64s-3.77,2.34-5.97,2.34-3.82-.72-5.18-2.16c-1.35-1.44-2.01-3.26-1.98-5.46l.56-.1c-.03,2.03.58,3.73,1.85,5.1,1.27,1.37,2.89,2.06,4.85,2.06,2.06,0,3.91-.73,5.53-2.18,1.62-1.46,2.57-3.2,2.84-5.23.27-1.49.1-2.86-.51-4.11-.3-.64-.77-1.18-1.4-1.62-.63-.44-1.19-.75-1.7-.94-.51-.19-1.41-.48-2.69-.89Z"/>
        </g>
        <g>
          <path class="cls-1" d="M330.41,105.5c-3.1-.92-5.24-2.12-6.42-3.6-1.19-1.48-1.65-3.59-1.4-6.3.25-2.78,1.52-5.17,3.79-7.16,2.28-1.99,4.82-2.99,7.63-2.99,2.56,0,4.68.85,6.35,2.54,1.67,1.69,2.56,3.82,2.65,6.38l-.52.14c-.13-2.43-.98-4.46-2.56-6.09-1.58-1.63-3.59-2.44-6.02-2.44-2.56,0-4.93.95-7.11,2.84-2.18,1.9-3.41,4.16-3.7,6.78-.28,2.62.18,4.64,1.4,6.04,1.22,1.41,3.26,2.52,6.14,3.34,3.79,1.14,6.36,2.44,7.7,3.91,1.34,1.47,1.87,3.75,1.59,6.85-.25,2.88-1.6,5.34-4.05,7.39-2.45,2.05-5.14,3.08-8.08,3.08-2.78,0-5.1-.97-6.97-2.91-1.86-1.94-2.72-4.31-2.56-7.09l.57-.09c-.13,2.65.69,4.91,2.44,6.78,1.75,1.87,3.96,2.8,6.61,2.8s5.25-.98,7.61-2.94c2.35-1.96,3.66-4.3,3.91-7.02.28-2.97-.24-5.15-1.56-6.54-1.33-1.39-3.81-2.62-7.44-3.7Z"/>
          <path class="cls-1" d="M353.4,86.88l-2.51,14.22h6.68l-.09.52h-6.68l-4.08,23.18h-.52l4.08-23.18h-4.69l.09-.52h4.69l2.51-14.22h.52Z"/>
          <path class="cls-1" d="M362.31,101.1l-.43,2.56c.69-1.17,1.65-2.12,2.87-2.87,1.22-.74,2.5-1.11,3.86-1.11,1.61,0,2.92.51,3.93,1.52l-.43.43c-.95-.95-2.15-1.42-3.6-1.42-1.68,0-3.21.59-4.6,1.78-1.39,1.19-2.23,2.61-2.51,4.29l-3.27,18.53h-.52l4.17-23.7h.52Z"/>
          <path class="cls-1" d="M392.08,124.8l.66-3.84c-3.1,3.51-6.6,5.26-10.52,5.26-3.67,0-6.61-1.3-8.84-3.89-2.23-2.59-3.09-5.72-2.58-9.39.51-3.67,2.24-6.79,5.19-9.39,2.95-2.59,6.26-3.89,9.93-3.89,2.12,0,4.01.47,5.69,1.42,1.67.95,3,2.24,3.98,3.89l.66-3.89h.52l-4.17,23.7h-.52ZM392.93,120.01l2.46-14.08c-.79-1.77-2.05-3.17-3.77-4.19-1.72-1.03-3.66-1.54-5.81-1.54-3.51,0-6.68,1.25-9.53,3.74-2.84,2.5-4.5,5.5-4.98,9.01s.36,6.51,2.51,9.01c2.15,2.5,4.98,3.74,8.48,3.74,3.95,0,7.49-1.9,10.62-5.69Z"/>
          <path class="cls-1" d="M409.14,86.88l-2.51,14.22h6.68l-.09.52h-6.68l-4.08,23.18h-.52l4.08-23.18h-4.69l.09-.52h4.69l2.51-14.22h.52Z"/>
          <path class="cls-1" d="M432.56,122.66l.28.38c-2.56,2.12-5.44,3.18-8.63,3.18-3.67,0-6.61-1.3-8.84-3.89-2.23-2.59-3.09-5.72-2.58-9.39.51-3.67,2.24-6.79,5.19-9.39,2.95-2.59,6.26-3.89,9.93-3.89s6.37,1.27,8.3,3.82c1.93,2.54,2.64,5.7,2.13,9.46l-.14.43h-24.93c-.35,3.41.55,6.32,2.68,8.72,2.13,2.4,4.92,3.6,8.37,3.6,2.97,0,5.72-1.01,8.25-3.03ZM413.36,112.85h24.46c.51-3.6-.14-6.59-1.94-8.96-1.87-2.46-4.55-3.7-8.06-3.7s-6.63,1.24-9.46,3.72c-2.83,2.48-4.49,5.46-5,8.93Z"/>
          <path class="cls-1" d="M461.48,128.64l1.33-7.54c-1.23,1.61-2.77,2.89-4.62,3.84-1.85.95-3.85,1.42-6,1.42-3.67,0-6.61-1.3-8.84-3.91-2.23-2.61-3.09-5.76-2.58-9.46.51-3.67,2.24-6.8,5.21-9.41s6.3-3.91,10-3.91c4.23,0,7.46,1.75,9.67,5.26l.66-3.84h.52l-4.88,27.82h-.05c-.63,3.19-2.29,5.91-4.98,8.15-2.69,2.24-5.63,3.37-8.82,3.37s-5.86-1.15-7.73-3.46l-.19-.19.47-.38.14.19c1.83,2.21,4.3,3.32,7.39,3.32s5.95-1.11,8.56-3.32,4.18-4.87,4.72-7.96ZM462.95,120.1l2.51-14.36c-1.99-3.7-5.2-5.55-9.62-5.55-3.54,0-6.73,1.25-9.58,3.74-2.84,2.5-4.5,5.51-4.98,9.05s.36,6.56,2.49,9.08,4.97,3.77,8.51,3.77c2.15,0,4.16-.51,6.04-1.54,1.88-1.03,3.42-2.42,4.62-4.19Z"/>
          <path class="cls-1" d="M466.36,140.44h-.57l8.72-15.69-4.74-23.65h.57l4.6,22.94,12.66-22.94h.57l-21.8,39.34Z"/>
        </g>
        <circle class="cls-3" cx="202.98" cy="95.48" r="2.23"/>
      </g>
    </g>
  </g>
</svg>