<?xml version="1.0" encoding="UTF-8"?>
<svg id="Capa_2" data-name="Capa 2" xmlns="http://www.w3.org/2000/svg" xmlns:xlink="http://www.w3.org/1999/xlink" viewBox="0 0 400 225">
  <defs>
    <style>
      .cls-1 {
        fill: #393f79;
        filter: url(#drop-shadow-1);
        stroke: #393f79;
      }

      .cls-1, .cls-2, .cls-3, .cls-4 {
        stroke-miterlimit: 10;
      }

      .cls-1, .cls-4 {
        stroke-width: 1.36px;
      }

      .cls-5 {
        fill: #de1a4d;
      }

      .cls-5, .cls-6 {
        stroke-width: 0px;
      }

      .cls-2 {
        stroke-width: 1.44px;
      }

      .cls-2, .cls-3, .cls-4 {
        stroke: #fff;
      }

      .cls-2, .cls-4, .cls-6 {
        fill: #fff;
      }

      .cls-3 {
        fill: none;
        stroke-width: 1.17px;
      }
    </style>
    <filter id="drop-shadow-1" filterUnits="userSpaceOnUse">
      <feOffset dx="0" dy="0"/>
      <feGaussianBlur result="blur" stdDeviation="14.21"/>
      <feFlood flood-color="#a3a3a3" flood-opacity="1"/>
      <feComposite in2="blur" operator="in"/>
      <feComposite in="SourceGraphic"/>
    </filter>
  </defs>
  <g id="Capa_1-2" data-name="Capa 1">
    <g>
      <rect class="cls-1" x="44.25" y="43.53" width="310.79" height="136.44" rx="68.22" ry="68.22"/>
      <g>
        <g>
          <path class="cls-4" d="M119.69,98.09l.32.37c-3.53,3.84-8.32,5.76-14.36,5.76-3.53,0-6.65-.88-9.33-2.63-2.69-1.75-4.67-4.13-5.93-7.14-1.27-3-1.68-6.3-1.22-9.9.48-3.81,1.83-7.23,4.03-10.27,2.2-3.03,4.93-5.36,8.18-6.98,3.25-1.62,6.67-2.42,10.26-2.42,5.35,0,9.6,1.92,12.78,5.76l-.45.37c-1.42-1.77-3.2-3.15-5.35-4.14-2.14-.99-4.5-1.49-7.07-1.49-3.47,0-6.8.81-9.97,2.42-3.17,1.62-5.84,3.9-8,6.86-2.16,2.96-3.47,6.25-3.92,9.88-.69,5.34.51,9.87,3.6,13.59,3.1,3.72,7.26,5.58,12.48,5.58,5.86,0,10.51-1.88,13.95-5.63Z"/>
          <path class="cls-4" d="M144.74,79.88l-2.58,14.91c-.45,2.62-1.6,4.83-3.44,6.63-1.84,1.8-4.02,2.7-6.52,2.7-2.96,0-5.23-.9-6.82-2.7s-2.15-4.01-1.7-6.63l2.58-14.91h.5l-2.58,14.91c-.45,2.47.08,4.56,1.59,6.27,1.51,1.71,3.68,2.56,6.52,2.56,2.36,0,4.39-.85,6.12-2.54,1.72-1.69,2.81-3.79,3.26-6.29l2.58-14.91h.5Z"/>
          <path class="cls-4" d="M146.51,102.75h-.54l6.39-36.59h.54l-6.39,36.59Z"/>
          <path class="cls-4" d="M162.5,66.16l-2.4,13.72h6.39l-.09.5h-6.39l-3.9,22.37h-.5l3.9-22.37h-4.48l.09-.5h4.48l2.4-13.72h.5Z"/>
          <path class="cls-4" d="M188.59,79.88l-2.58,14.91c-.45,2.62-1.6,4.83-3.44,6.63-1.84,1.8-4.02,2.7-6.52,2.7-2.96,0-5.23-.9-6.82-2.7s-2.15-4.01-1.7-6.63l2.58-14.91h.5l-2.58,14.91c-.45,2.47.08,4.56,1.59,6.27,1.51,1.71,3.68,2.56,6.52,2.56,2.36,0,4.39-.85,6.12-2.54,1.72-1.69,2.81-3.79,3.26-6.29l2.58-14.91h.5Z"/>
          <path class="cls-4" d="M194.21,79.88l-.41,2.47c.66-1.13,1.58-2.05,2.74-2.77,1.16-.72,2.39-1.07,3.69-1.07,1.54,0,2.79.49,3.76,1.46l-.41.41c-.91-.91-2.05-1.37-3.44-1.37-1.6,0-3.07.57-4.39,1.72-1.33,1.14-2.13,2.52-2.4,4.14l-3.13,17.89h-.5l3.99-22.87h.5Z"/>
          <path class="cls-4" d="M222.66,102.75l.63-3.71c-2.96,3.38-6.31,5.08-10.06,5.08-3.5,0-6.32-1.25-8.45-3.75-2.13-2.5-2.95-5.52-2.47-9.06.48-3.54,2.14-6.56,4.96-9.06,2.82-2.5,5.99-3.75,9.49-3.75,2.02,0,3.84.46,5.44,1.37,1.6.91,2.87,2.17,3.81,3.75l.63-3.75h.5l-3.99,22.87h-.5ZM223.47,98.13l2.36-13.59c-.76-1.71-1.96-3.06-3.6-4.05-1.65-.99-3.5-1.49-5.55-1.49-3.35,0-6.39,1.2-9.11,3.61-2.72,2.41-4.3,5.31-4.76,8.69-.45,3.39.35,6.28,2.4,8.69,2.05,2.41,4.76,3.61,8.11,3.61,3.77,0,7.16-1.83,10.15-5.49Z"/>
        </g>
        <g>
          <path class="cls-5" d="M246.7,106.03h0s-.04,0,0,0Z"/>
          <path class="cls-6" d="M285.87,58.08l4.39,4.39-14.42,14.42v23.48l-4.54-4.54-9.68,10.03c7.71-.02,15.02,0,15.02,0l29.13-28.82,4.54,4.54v-23.5h-24.44Z"/>
          <polyline class="cls-3" points="275.84 76.88 275.84 76.88 251.4 76.88 255.79 81.26 231.08 105.92 276.63 105.92"/>
        </g>
      </g>
      <g>
        <path class="cls-2" d="M96.11,115.51l-2.95,16.86h14.93l-.13.53h-14.93l-2.95,16.86h17.22l-.09.48h-17.7l6.21-35.22h17.83l-.09.48h-17.35Z"/>
        <path class="cls-2" d="M120.81,139.2l5.86,11.05h-.57l-5.64-10.65-9.38,10.65h-.62l9.73-11.05-5.81-10.96h.57l5.64,10.52,9.29-10.52h.62l-9.69,10.96Z"/>
        <path class="cls-2" d="M134.24,128.24l-.62,3.52c1.11-1.5,2.54-2.68,4.27-3.54,1.73-.87,3.6-1.3,5.59-1.3,3.4,0,6.16,1.21,8.26,3.63,2.1,2.42,2.91,5.33,2.44,8.74-.47,3.41-2.09,6.32-4.86,8.74s-5.88,3.63-9.31,3.63c-2,0-3.76-.43-5.31-1.3s-2.78-2.05-3.72-3.54l-3.17,17.96h-.48l6.43-36.54h.48ZM133.4,132.86l-2.2,13.12c1.94,3.46,4.9,5.2,8.89,5.2,3.29,0,6.27-1.17,8.94-3.5,2.67-2.33,4.23-5.13,4.67-8.39.44-3.29-.35-6.09-2.36-8.41-2.01-2.32-4.66-3.48-7.95-3.48-2.03,0-3.91.48-5.66,1.45-1.75.97-3.19,2.3-4.34,4.01Z"/>
        <path class="cls-2" d="M161.82,130.53c2.74-2.41,5.82-3.61,9.22-3.61s6.14,1.2,8.21,3.61c2.07,2.41,2.87,5.31,2.4,8.72-.47,3.41-2.08,6.31-4.82,8.72-2.74,2.41-5.82,3.61-9.22,3.61s-6.14-1.2-8.21-3.61c-2.07-2.41-2.87-5.31-2.4-8.72.47-3.4,2.08-6.31,4.82-8.72ZM178.84,130.88c-2-2.32-4.62-3.48-7.88-3.48s-6.21,1.16-8.85,3.48c-2.64,2.32-4.18,5.11-4.62,8.37-.44,3.26.34,6.05,2.33,8.37,2,2.32,4.62,3.48,7.88,3.48s6.21-1.16,8.85-3.48c2.64-2.32,4.18-5.11,4.62-8.37.44-3.26-.34-6.05-2.33-8.37Z"/>
        <path class="cls-2" d="M188.08,128.24l-.84,4.75c.91-1.79,2.25-3.25,4.01-4.38s3.61-1.7,5.55-1.7c2.49,0,4.46.88,5.9,2.64,1.44,1.76,1.94,3.87,1.5,6.34l-2.51,14.35h-.48l2.51-14.35c.41-2.32-.07-4.31-1.43-5.99-1.37-1.67-3.22-2.51-5.57-2.51s-4.46.83-6.43,2.49c-1.97,1.66-3.16,3.66-3.57,6.01l-2.51,14.35h-.48l3.87-22.01h.48Z"/>
        <path class="cls-2" d="M224.89,148.27l.26.35c-2.38,1.97-5.05,2.95-8.01,2.95-3.41,0-6.14-1.2-8.21-3.61-2.07-2.41-2.87-5.31-2.4-8.72.47-3.4,2.08-6.31,4.82-8.72,2.74-2.41,5.82-3.61,9.22-3.61s5.91,1.18,7.7,3.54c1.79,2.36,2.45,5.29,1.98,8.78l-.13.4h-23.16c-.32,3.17.51,5.87,2.49,8.1,1.98,2.23,4.57,3.35,7.77,3.35,2.76,0,5.31-.94,7.66-2.82ZM207.06,139.16h22.72c.47-3.35-.13-6.12-1.8-8.32-1.73-2.29-4.23-3.43-7.48-3.43s-6.16,1.15-8.78,3.46c-2.63,2.3-4.17,5.07-4.64,8.3Z"/>
        <path class="cls-2" d="M236.38,128.24l-.84,4.75c.91-1.79,2.25-3.25,4.01-4.38s3.61-1.7,5.55-1.7c2.49,0,4.46.88,5.9,2.64,1.44,1.76,1.94,3.87,1.5,6.34l-2.51,14.35h-.48l2.51-14.35c.41-2.32-.07-4.31-1.43-5.99-1.37-1.67-3.22-2.51-5.57-2.51s-4.46.83-6.43,2.49c-1.97,1.66-3.16,3.66-3.57,6.01l-2.51,14.35h-.48l3.87-22.01h.48Z"/>
        <path class="cls-2" d="M274.64,147.61l.22.31c-2.73,2.44-5.78,3.65-9.16,3.65s-6.14-1.2-8.21-3.61c-2.07-2.41-2.87-5.31-2.4-8.72.47-3.4,2.08-6.31,4.82-8.72,2.74-2.41,5.82-3.61,9.22-3.61s6.21,1.2,8.23,3.61l-.35.31c-2.05-2.29-4.71-3.43-7.97-3.43s-6.21,1.16-8.85,3.48c-2.64,2.32-4.18,5.11-4.62,8.37-.44,3.26.34,6.05,2.33,8.37,2,2.32,4.62,3.48,7.88,3.48s6.21-1.16,8.85-3.48Z"/>
        <path class="cls-2" d="M278.21,150.25h-.53l3.87-22.01h.53l-3.87,22.01ZM283.31,121.37h-.53l1.1-6.34h.53l-1.1,6.34Z"/>
        <path class="cls-2" d="M304.23,150.25l.62-3.57c-2.88,3.26-6.13,4.89-9.77,4.89-3.41,0-6.14-1.2-8.21-3.61-2.07-2.41-2.87-5.31-2.4-8.72.47-3.4,2.08-6.31,4.82-8.72,2.74-2.41,5.82-3.61,9.22-3.61,1.97,0,3.73.44,5.28,1.32,1.56.88,2.79,2.08,3.7,3.61l.62-3.61h.48l-3.87,22.01h-.48ZM305.02,145.8l2.29-13.08c-.73-1.64-1.9-2.94-3.5-3.9-1.6-.95-3.4-1.43-5.39-1.43-3.26,0-6.21,1.16-8.85,3.48-2.64,2.32-4.18,5.11-4.62,8.37-.44,3.26.34,6.05,2.33,8.37,2,2.32,4.62,3.48,7.88,3.48,3.67,0,6.96-1.76,9.86-5.28Z"/>
        <path class="cls-2" d="M310.61,150.25h-.53l6.21-35.22h.53l-6.21,35.22Z"/>
      </g>
    </g>
  </g>
</svg>