<?xml version="1.0" encoding="UTF-8"?>
<svg id="Capa_2" data-name="Capa 2" xmlns="http://www.w3.org/2000/svg" xmlns:xlink="http://www.w3.org/1999/xlink" viewBox="0 0 398 223">
  <defs>
    <style>
      .cls-1 {
        stroke-width: 1.43px;
      }

      .cls-1, .cls-2, .cls-3, .cls-4 {
        fill: #fff;
      }

      .cls-1, .cls-2, .cls-4 {
        stroke: #fff;
        stroke-miterlimit: 10;
      }

      .cls-2 {
        stroke-width: .22px;
      }

      .cls-3, .cls-5 {
        stroke-width: 0px;
      }

      .cls-4 {
        stroke-width: .38px;
      }

      .cls-5 {
        fill: #e38520;
        filter: url(#drop-shadow-1);
      }
    </style>
    <filter id="drop-shadow-1" filterUnits="userSpaceOnUse">
      <feOffset dx="0" dy="0"/>
      <feGaussianBlur result="blur" stdDeviation="14.21"/>
      <feFlood flood-color="#a3a3a3" flood-opacity="1"/>
      <feComposite in2="blur" operator="in"/>
      <feComposite in="SourceGraphic"/>
    </filter>
  </defs>
  <g id="Capa_1-2" data-name="Capa 1">
    <g>
      <rect class="cls-5" x="42.89" y="42.95" width="310.79" height="136.44" rx="68.22" ry="68.22"/>
      <g>
        <path class="cls-3" d="M182.8,103.38c.49-.03.97-.09,1.46-.1,2.65,0,5.3-.05,7.95.02,1.02.03,1.49-.32,1.87-1.25,2.65-6.47,5.35-12.91,8.03-19.36.11-.26.23-.51.41-.9,2.03.97,4,1.91,6.18,2.95,0-1.35-.05-2.56.03-3.76.03-.45.25-1.05.59-1.31,4.3-3.33,8.63-6.61,12.96-9.91.11-.08.26-.1.42-.16,3.02,5.02,6.03,10.03,9.07,15.08.66-.18,1.24-.33,1.93-.52.65,2,1.36,3.95,1.91,5.94.28,1.01.79,1.31,1.78,1.34,1.62.04,3.64-.28,4.75.55,1.07.8,1.22,2.86,1.75,4.37.68,1.96,1.35,3.93,1.96,5.92.24.77.62,1.03,1.41,1.01,2.13-.05,4.26-.02,6.39-.01.43,0,.86.08,1.28.13l-.03.42h-72.1c0-.15,0-.3-.01-.45ZM194.35,103.16h51.11c-1.02-3-1.99-5.87-3-8.83-1.52,1.06-2.82,1.97-4.38,3.06.73-1.86,1.36-3.45,2.09-5.3-1.39,0-2.52.09-3.63-.04-.46-.06-1.07-.51-1.25-.94-.56-1.33-.95-2.74-1.42-4.17-1.15.21-2.17.5-3.19.55-1.1.05-1.54.6-1.84,1.57-.52,1.68-1.15,3.32-1.73,4.97-.24-2.16-.29-4.24-.21-6.32.02-.48.32-1.06.68-1.4.92-.87,1.94-1.63,2.9-2.42-2.7-4.51-5.34-8.91-8.06-13.46-2.14,4.69-4.12,9.23-6.29,13.69-1.08,2.22-1.26,4.49-1.18,6.87.07,1.96.01,3.92.01,5.88-1.44-2.24-2.54-4.57-3.67-6.88-.2-.41-.44-.93-.8-1.1-1.48-.68-3.01-1.25-4.73-1.95.3.99.79,1.78.68,2.48-.12.73-.81,1.36-1.25,2.03l-.38-.02c.82-3.02-1.41-4.11-3.18-5.59-2.43,5.8-4.82,11.49-7.27,17.32Z"/>
        <circle class="cls-2" cx="215.49" cy="147.2" r=".87"/>
        <circle class="cls-2" cx="220.33" cy="146.93" r="1.09"/>
        <circle class="cls-2" cx="222.62" cy="143.06" r=".76"/>
        <circle class="cls-2" cx="229.21" cy="140.19" r=".87"/>
        <circle class="cls-2" cx="236.51" cy="135.06" r=".98"/>
        <circle class="cls-2" cx="227.21" cy="143.51" r=".98"/>
        <circle class="cls-2" cx="224.72" cy="139.38" r="1.2"/>
        <circle class="cls-2" cx="232.7" cy="134.23" r="1.2"/>
        <circle class="cls-2" cx="234.85" cy="137.87" r=".66"/>
        <circle class="cls-2" cx="230.83" cy="137.33" r=".66"/>
        <circle class="cls-2" cx="212.86" cy="142.68" r="1.09"/>
        <circle class="cls-2" cx="210.06" cy="137.84" r="1.31"/>
        <circle class="cls-2" cx="217.76" cy="151.41" r="1.31"/>
        <circle class="cls-4" cx="137.16" cy="101.15" r="2.23"/>
        <circle class="cls-2" cx="207.35" cy="133.09" r="1.53"/>
        <g>
          <path class="cls-1" d="M105.51,92.66h7.5c5.47,0,9.82,1.93,13.07,5.79,3.25,3.86,4.51,8.56,3.78,14.09-.73,5.57-3.32,10.27-7.78,14.11-4.46,3.84-9.65,5.76-15.58,5.76h-8l7.01-39.76ZM105.95,93.2l-6.81,38.66h7.45c5.7,0,10.73-1.88,15.11-5.64,4.37-3.76,6.91-8.32,7.6-13.69.7-5.33-.54-9.89-3.7-13.67-3.16-3.78-7.4-5.67-12.7-5.67h-6.96Z"/>
          <path class="cls-1" d="M131.7,132.41h-.6l4.37-24.85h.6l-4.37,24.85Z"/>
          <path class="cls-1" d="M146.9,118.7c-.96-.26-1.69-.49-2.19-.67-.5-.18-.99-.46-1.49-.82-.5-.36-.88-.83-1.14-1.39-.53-.86-.73-2-.6-3.43.27-1.76,1.09-3.25,2.48-4.47,1.39-1.23,2.95-1.84,4.67-1.84,1.59,0,2.91.52,3.95,1.57,1.04,1.04,1.57,2.33,1.57,3.85l-.55.15c0-1.42-.48-2.62-1.44-3.58-.96-.96-2.17-1.44-3.63-1.44-1.56,0-2.97.56-4.25,1.69-1.28,1.13-2.03,2.48-2.26,4.08-.1,1.26.05,2.3.45,3.13.36.73.87,1.26,1.52,1.59.65.33,1.65.7,3.01,1.09,1.26.36,2.18.65,2.76.85.58.2,1.19.53,1.84.99.65.46,1.13,1.04,1.47,1.74.66,1.39.84,2.83.55,4.32-.27,2.15-1.27,3.99-3.01,5.52-1.74,1.52-3.69,2.29-5.84,2.29s-3.74-.7-5.07-2.11c-1.32-1.41-1.97-3.19-1.94-5.34l.55-.1c-.03,1.99.57,3.65,1.81,4.99,1.24,1.34,2.82,2.01,4.75,2.01,2.02,0,3.83-.71,5.42-2.14,1.59-1.42,2.52-3.13,2.78-5.12.26-1.46.1-2.8-.5-4.03-.3-.63-.75-1.16-1.37-1.59-.61-.43-1.17-.74-1.66-.92-.5-.18-1.38-.47-2.63-.87Z"/>
          <path class="cls-1" d="M179.6,129.43l.25.35c-3.08,2.75-6.53,4.12-10.34,4.12s-6.93-1.36-9.27-4.08c-2.34-2.72-3.24-6-2.71-9.84.53-3.84,2.34-7.12,5.44-9.84,3.1-2.72,6.57-4.08,10.41-4.08s7.01,1.36,9.29,4.08l-.4.35c-2.32-2.58-5.32-3.88-9-3.88s-7.01,1.31-9.99,3.93c-2.98,2.62-4.72,5.76-5.22,9.44s.38,6.83,2.63,9.44c2.25,2.62,5.22,3.93,8.9,3.93s7.01-1.31,9.99-3.93Z"/>
          <path class="cls-1" d="M189.02,110.15c3.1-2.72,6.57-4.08,10.41-4.08s6.93,1.36,9.27,4.08c2.34,2.72,3.24,6,2.71,9.84-.53,3.84-2.34,7.12-5.44,9.84-3.1,2.72-6.57,4.08-10.41,4.08s-6.93-1.36-9.27-4.08c-2.34-2.72-3.24-6-2.71-9.84.53-3.84,2.34-7.12,5.44-9.84ZM208.23,110.55c-2.25-2.62-5.22-3.93-8.9-3.93s-7.01,1.31-9.99,3.93c-2.98,2.62-4.72,5.76-5.22,9.44s.38,6.83,2.63,9.44c2.25,2.62,5.22,3.93,8.9,3.93s7.01-1.31,9.99-3.93c2.98-2.62,4.72-5.76,5.22-9.44s-.38-6.82-2.63-9.44Z"/>
          <path class="cls-1" d="M219.01,133.9l-5.37-26.34h.6l5.02,24.8,13.82-24.8h.6l-14.66,26.34Z"/>
          <path class="cls-1" d="M252.01,130.18l.3.4c-2.68,2.22-5.7,3.33-9.04,3.33-3.84,0-6.93-1.36-9.27-4.08-2.34-2.72-3.24-6-2.71-9.84.53-3.84,2.34-7.12,5.44-9.84,3.1-2.72,6.57-4.08,10.41-4.08s6.68,1.33,8.7,4c2.02,2.67,2.77,5.97,2.24,9.91l-.15.45h-26.14c-.36,3.58.57,6.63,2.81,9.14,2.24,2.52,5.16,3.78,8.77,3.78,3.11,0,6-1.06,8.65-3.18ZM231.88,119.89h25.64c.53-3.78-.15-6.91-2.04-9.39-1.96-2.58-4.77-3.88-8.45-3.88s-6.95,1.3-9.91,3.9c-2.96,2.6-4.71,5.72-5.24,9.37Z"/>
          <path class="cls-1" d="M264.98,107.56l-.45,2.68c.73-1.22,1.73-2.23,3.01-3.01,1.27-.78,2.63-1.17,4.05-1.17,1.69,0,3.06.53,4.12,1.59l-.45.45c-.99-.99-2.25-1.49-3.78-1.49-1.76,0-3.36.62-4.82,1.86-1.46,1.24-2.34,2.74-2.63,4.5l-3.43,19.43h-.55l4.37-24.85h.55Z"/>
          <path class="cls-1" d="M275.21,148.81h-.6l9.14-16.45-4.97-24.8h.6l4.82,24.05,13.27-24.05h.6l-22.86,41.25Z"/>
        </g>
      </g>
    </g>
  </g>
</svg>