<?xml version="1.0" encoding="UTF-8"?>
<svg id="Capa_2" data-name="Capa 2" xmlns="http://www.w3.org/2000/svg" xmlns:xlink="http://www.w3.org/1999/xlink" viewBox="0 0 562 211">
  <defs>
    <style>
      .cls-1 {
        fill: #de1a4d;
        filter: url(#drop-shadow-1);
        stroke: #de1a4d;
        stroke-width: .72px;
      }

      .cls-1, .cls-2, .cls-3 {
        stroke-miterlimit: 10;
      }

      .cls-2 {
        stroke-width: 1.23px;
      }

      .cls-2, .cls-3 {
        fill: #fff;
        stroke: #fff;
      }

      .cls-3 {
        stroke-width: .18px;
      }
    </style>
    <filter id="drop-shadow-1" filterUnits="userSpaceOnUse">
      <feOffset dx="0" dy="0"/>
      <feGaussianBlur result="blur" stdDeviation="13.4"/>
      <feFlood flood-color="#a3a3a3" flood-opacity="1"/>
      <feComposite in2="blur" operator="in"/>
      <feComposite in="SourceGraphic"/>
    </filter>
  </defs>
  <g id="Capa_1-2" data-name="Capa 1">
    <g>
      <rect class="cls-1" x="41.52" y="40.85" width="478.65" height="128.71" rx="64.35" ry="64.35"/>
      <g>
        <g>
          <circle class="cls-3" cx="339.3" cy="119.05" r=".81"/>
          <circle class="cls-3" cx="348.35" cy="125.9" r="1.01"/>
          <circle class="cls-3" cx="351" cy="124.64" r=".71"/>
          <circle class="cls-3" cx="337.61" cy="126.06" r=".6"/>
          <circle class="cls-3" cx="338.07" cy="128.25" r=".81"/>
          <circle class="cls-3" cx="344.5" cy="131.32" r=".81"/>
          <circle class="cls-3" cx="338.81" cy="130.66" r=".91"/>
          <circle class="cls-3" cx="342.22" cy="132.45" r=".91"/>
          <circle class="cls-3" cx="339.75" cy="133.32" r="1.11"/>
          <circle class="cls-3" cx="346.71" cy="130.33" r=".6"/>
          <circle class="cls-3" cx="339.86" cy="121.85" r="1.01"/>
          <circle class="cls-3" cx="341" cy="125.08" r="1.21"/>
          <circle class="cls-3" cx="345.38" cy="127.16" r="1.21"/>
          <circle class="cls-3" cx="342.03" cy="128.56" r="1.41"/>
        </g>
        <g>
          <circle class="cls-3" cx="363.48" cy="90.15" r=".81"/>
          <circle class="cls-3" cx="352.53" cy="87.18" r="1.01"/>
          <circle class="cls-3" cx="350.54" cy="89.34" r=".71"/>
          <circle class="cls-3" cx="362.43" cy="83.02" r=".6"/>
          <circle class="cls-3" cx="361.19" cy="81.15" r=".81"/>
          <circle class="cls-3" cx="354.08" cy="80.71" r=".81"/>
          <circle class="cls-3" cx="359.6" cy="79.2" r=".91"/>
          <circle class="cls-3" cx="355.77" cy="78.81" r=".91"/>
          <circle class="cls-3" cx="357.73" cy="77.08" r="1.11"/>
          <circle class="cls-3" cx="352.4" cy="82.46" r=".6"/>
          <circle class="cls-3" cx="361.92" cy="87.77" r="1.01"/>
          <circle class="cls-3" cx="359.65" cy="85.2" r="1.21"/>
          <circle class="cls-3" cx="354.82" cy="84.9" r="1.21"/>
          <circle class="cls-3" cx="357.4" cy="82.34" r="1.41"/>
        </g>
        <path class="cls-2" d="M113.82,79.36h9.2c3.13.1,5.57,1.12,7.3,3.07,1.73,1.95,2.48,4.32,2.25,7.12-.17,2.04-1.09,4.03-2.77,5.96-1.68,1.93-3.53,3.09-5.54,3.49,2.01.36,3.56,1.53,4.65,3.51,1.09,1.98,1.43,4.06,1.04,6.23-.53,2.94-1.95,5.37-4.28,7.3-2.33,1.93-5.2,2.89-8.63,2.89h-10.19l6.98-39.58ZM110.81,99.45l-3.31,18.95h9.65c3.1,0,5.8-.93,8.11-2.79,2.31-1.86,3.69-4.15,4.16-6.85.4-2.28-.04-4.39-1.31-6.36-1.27-1.96-3.01-2.94-5.22-2.94h-12.07ZM114.27,79.91l-3.31,18.95h11.23c2.24,0,4.39-.99,6.46-2.97,2.06-1.98,3.19-4.09,3.39-6.33.23-2.74-.51-5.03-2.23-6.88-1.72-1.85-4.11-2.77-7.17-2.77h-8.36Z"/>
        <path class="cls-2" d="M156.71,94.2l-2.82,16.13c-.49,2.84-1.75,5.23-3.76,7.17-2.01,1.95-4.39,2.92-7.12,2.92-3.23,0-5.71-.97-7.45-2.92-1.73-1.95-2.35-4.34-1.86-7.17l2.82-16.13h.54l-2.82,16.13c-.49,2.67.08,4.93,1.73,6.78,1.65,1.85,4.02,2.77,7.12,2.77,2.57,0,4.8-.92,6.68-2.75,1.88-1.83,3.07-4.1,3.56-6.8l2.82-16.13h.54Z"/>
        <path class="cls-2" d="M166.95,105.28c-.96-.26-1.68-.49-2.18-.67-.49-.18-.99-.45-1.48-.82-.49-.36-.87-.82-1.14-1.38-.53-.86-.73-2-.59-3.41.26-1.75,1.09-3.23,2.47-4.45,1.39-1.22,2.94-1.83,4.65-1.83,1.58,0,2.89.52,3.93,1.56,1.04,1.04,1.56,2.32,1.56,3.83l-.54.15c0-1.42-.48-2.61-1.43-3.56-.96-.96-2.16-1.43-3.61-1.43-1.55,0-2.96.56-4.23,1.68-1.27,1.12-2.02,2.47-2.25,4.06-.1,1.25.05,2.29.45,3.12.36.73.87,1.25,1.51,1.58.64.33,1.64.69,2.99,1.09,1.25.36,2.17.64,2.75.84.58.2,1.19.53,1.83.99.64.46,1.13,1.04,1.46,1.73.66,1.39.84,2.82.54,4.3-.26,2.14-1.26,3.97-2.99,5.49-1.73,1.52-3.67,2.28-5.81,2.28s-3.73-.7-5.05-2.1c-1.32-1.4-1.96-3.17-1.93-5.32l.54-.1c-.03,1.98.57,3.64,1.81,4.97,1.24,1.34,2.81,2,4.72,2,2.01,0,3.81-.71,5.39-2.13,1.58-1.42,2.51-3.12,2.77-5.1.26-1.45.1-2.79-.49-4.01-.3-.63-.75-1.15-1.36-1.58-.61-.43-1.16-.73-1.66-.92-.49-.18-1.37-.47-2.62-.87Z"/>
        <path class="cls-2" d="M177.56,118.94h-.59l4.35-24.74h.59l-4.35,24.74Z"/>
        <path class="cls-2" d="M188.59,94.2l-.94,5.34c1.02-2.01,2.52-3.65,4.5-4.92,1.98-1.27,4.06-1.9,6.23-1.9,2.8,0,5.01.99,6.63,2.97,1.62,1.98,2.18,4.35,1.68,7.12l-2.82,16.13h-.54l2.82-16.13c.46-2.61-.07-4.85-1.61-6.73-1.53-1.88-3.62-2.82-6.26-2.82s-5.01.93-7.22,2.79c-2.21,1.86-3.54,4.11-4.01,6.75l-2.82,16.13h-.54l4.35-24.74h.54Z"/>
        <path class="cls-2" d="M229.95,116.71l.3.4c-2.67,2.21-5.67,3.32-9,3.32-3.83,0-6.9-1.35-9.23-4.06-2.33-2.7-3.22-5.97-2.7-9.8.53-3.83,2.33-7.09,5.42-9.8,3.08-2.7,6.54-4.06,10.36-4.06s6.65,1.33,8.66,3.98c2.01,2.65,2.75,5.95,2.23,9.87l-.15.45h-26.02c-.36,3.56.57,6.6,2.8,9.1,2.23,2.51,5.14,3.76,8.73,3.76,3.1,0,5.97-1.06,8.61-3.17ZM209.91,106.47h25.53c.53-3.76-.15-6.88-2.03-9.35-1.95-2.57-4.75-3.86-8.41-3.86s-6.92,1.29-9.87,3.88c-2.95,2.59-4.69,5.7-5.22,9.33Z"/>
        <path class="cls-2" d="M246.96,105.28c-.96-.26-1.68-.49-2.18-.67-.49-.18-.99-.45-1.48-.82-.49-.36-.87-.82-1.14-1.38-.53-.86-.73-2-.59-3.41.26-1.75,1.09-3.23,2.47-4.45,1.39-1.22,2.94-1.83,4.65-1.83,1.58,0,2.89.52,3.93,1.56,1.04,1.04,1.56,2.32,1.56,3.83l-.54.15c0-1.42-.48-2.61-1.43-3.56-.96-.96-2.16-1.43-3.61-1.43-1.55,0-2.96.56-4.23,1.68-1.27,1.12-2.02,2.47-2.25,4.06-.1,1.25.05,2.29.45,3.12.36.73.87,1.25,1.51,1.58.64.33,1.64.69,2.99,1.09,1.25.36,2.17.64,2.75.84.58.2,1.19.53,1.83.99.64.46,1.13,1.04,1.46,1.73.66,1.39.84,2.82.54,4.3-.26,2.14-1.26,3.97-2.99,5.49-1.73,1.52-3.67,2.28-5.81,2.28s-3.73-.7-5.05-2.1c-1.32-1.4-1.96-3.17-1.93-5.32l.54-.1c-.03,1.98.57,3.64,1.81,4.97,1.24,1.34,2.81,2,4.72,2,2.01,0,3.81-.71,5.39-2.13,1.58-1.42,2.51-3.12,2.77-5.1.26-1.45.1-2.79-.49-4.01-.3-.63-.75-1.15-1.36-1.58-.61-.43-1.16-.73-1.66-.92-.49-.18-1.37-.47-2.62-.87Z"/>
        <path class="cls-2" d="M265.86,105.28c-.96-.26-1.68-.49-2.18-.67-.49-.18-.99-.45-1.48-.82-.49-.36-.87-.82-1.14-1.38-.53-.86-.73-2-.59-3.41.26-1.75,1.09-3.23,2.47-4.45,1.39-1.22,2.94-1.83,4.65-1.83,1.58,0,2.89.52,3.93,1.56,1.04,1.04,1.56,2.32,1.56,3.83l-.54.15c0-1.42-.48-2.61-1.43-3.56-.96-.96-2.16-1.43-3.61-1.43-1.55,0-2.96.56-4.23,1.68-1.27,1.12-2.02,2.47-2.25,4.06-.1,1.25.05,2.29.45,3.12.36.73.87,1.25,1.51,1.58.64.33,1.64.69,2.99,1.09,1.25.36,2.17.64,2.75.84.58.2,1.19.53,1.83.99.64.46,1.13,1.04,1.46,1.73.66,1.39.84,2.82.54,4.3-.26,2.14-1.26,3.97-2.99,5.49-1.73,1.52-3.67,2.28-5.81,2.28s-3.73-.7-5.05-2.1c-1.32-1.4-1.96-3.17-1.93-5.32l.54-.1c-.03,1.98.57,3.64,1.81,4.97,1.24,1.34,2.81,2,4.72,2,2.01,0,3.81-.71,5.39-2.13,1.58-1.42,2.51-3.12,2.77-5.1.26-1.45.1-2.79-.49-4.01-.3-.63-.75-1.15-1.36-1.58-.61-.43-1.16-.73-1.66-.92-.49-.18-1.37-.47-2.62-.87Z"/>
        <g>
          <path class="cls-2" d="M301.14,98.71c-3.02-.89-5.1-2.06-6.26-3.51-1.15-1.45-1.61-3.49-1.36-6.14.25-2.71,1.48-5.03,3.7-6.97,2.22-1.94,4.7-2.91,7.44-2.91,2.49,0,4.56.82,6.19,2.47,1.63,1.65,2.49,3.72,2.59,6.21l-.51.14c-.12-2.37-.95-4.35-2.49-5.94-1.54-1.59-3.5-2.38-5.87-2.38-2.49,0-4.8.92-6.93,2.77-2.12,1.85-3.33,4.05-3.6,6.6-.28,2.56.18,4.52,1.36,5.89,1.19,1.37,3.18,2.46,5.98,3.26,3.7,1.11,6.2,2.38,7.51,3.81,1.31,1.43,1.82,3.66,1.55,6.67-.25,2.8-1.56,5.2-3.95,7.21-2.39,2-5.01,3-7.88,3-2.71,0-4.97-.95-6.79-2.84-1.82-1.89-2.65-4.2-2.49-6.91l.55-.09c-.12,2.59.67,4.79,2.38,6.6,1.71,1.82,3.86,2.72,6.44,2.72s5.12-.95,7.41-2.86c2.29-1.91,3.56-4.19,3.81-6.84.28-2.89-.23-5.02-1.52-6.37s-3.71-2.56-7.25-3.6Z"/>
          <path class="cls-2" d="M323.54,80.56l-2.45,13.86h6.51l-.09.51h-6.51l-3.97,22.59h-.51l3.97-22.59h-4.57l.09-.51h4.57l2.45-13.86h.51Z"/>
          <path class="cls-2" d="M332.22,94.41l-.42,2.49c.68-1.14,1.61-2.07,2.79-2.79,1.18-.72,2.44-1.09,3.76-1.09,1.57,0,2.85.49,3.83,1.48l-.42.42c-.92-.92-2.09-1.39-3.51-1.39-1.63,0-3.13.58-4.48,1.73-1.36,1.15-2.17,2.55-2.45,4.18l-3.19,18.06h-.51l4.06-23.09h.51Z"/>
          <path class="cls-2" d="M361.23,117.51l.65-3.74c-3.02,3.42-6.44,5.13-10.25,5.13-3.57,0-6.44-1.26-8.61-3.79-2.17-2.52-3.01-5.57-2.52-9.15.49-3.57,2.18-6.62,5.06-9.15,2.88-2.52,6.1-3.79,9.68-3.79,2.06,0,3.91.46,5.54,1.39,1.63.92,2.93,2.19,3.88,3.79l.65-3.79h.51l-4.06,23.09h-.51ZM362.06,112.84l2.4-13.72c-.77-1.72-1.99-3.09-3.67-4.09-1.68-1-3.56-1.5-5.66-1.5-3.42,0-6.51,1.22-9.28,3.65-2.77,2.43-4.39,5.36-4.85,8.78s.35,6.34,2.45,8.78c2.09,2.43,4.85,3.65,8.27,3.65,3.85,0,7.3-1.85,10.35-5.54Z"/>
          <path class="cls-2" d="M377.86,80.56l-2.45,13.86h6.51l-.09.51h-6.51l-3.97,22.59h-.51l3.97-22.59h-4.57l.09-.51h4.57l2.45-13.86h.51Z"/>
          <path class="cls-2" d="M400.67,115.43l.28.37c-2.49,2.06-5.3,3.09-8.41,3.09-3.57,0-6.44-1.26-8.61-3.79-2.17-2.52-3.01-5.57-2.52-9.15.49-3.57,2.18-6.62,5.06-9.15,2.88-2.52,6.1-3.79,9.68-3.79s6.2,1.24,8.08,3.72c1.88,2.48,2.57,5.55,2.08,9.21l-.14.42h-24.3c-.34,3.33.53,6.16,2.61,8.5,2.08,2.34,4.8,3.51,8.15,3.51,2.89,0,5.57-.99,8.04-2.96ZM381.97,105.87h23.83c.49-3.51-.14-6.42-1.89-8.73-1.82-2.4-4.43-3.6-7.85-3.6s-6.46,1.21-9.21,3.63c-2.76,2.42-4.38,5.32-4.87,8.71Z"/>
          <path class="cls-2" d="M428.85,121.25l1.29-7.34c-1.2,1.57-2.7,2.82-4.5,3.74-1.8.92-3.75,1.39-5.84,1.39-3.57,0-6.44-1.27-8.61-3.81-2.17-2.54-3.01-5.61-2.52-9.21.49-3.57,2.19-6.63,5.08-9.17s6.14-3.81,9.75-3.81c4.13,0,7.27,1.71,9.42,5.13l.65-3.74h.51l-4.76,27.11h-.05c-.62,3.11-2.23,5.76-4.85,7.94-2.62,2.19-5.48,3.28-8.59,3.28s-5.71-1.12-7.53-3.37l-.18-.18.46-.37.14.18c1.79,2.16,4.19,3.23,7.21,3.23s5.8-1.08,8.34-3.23c2.54-2.16,4.07-4.74,4.6-7.76ZM430.28,112.94l2.45-14c-1.94-3.6-5.07-5.4-9.38-5.4-3.45,0-6.56,1.22-9.33,3.65-2.77,2.43-4.39,5.37-4.85,8.82s.35,6.4,2.42,8.84c2.08,2.45,4.84,3.67,8.29,3.67,2.09,0,4.06-.5,5.89-1.5,1.83-1,3.33-2.36,4.5-4.09Z"/>
          <path class="cls-2" d="M433.61,132.75h-.55l8.5-15.29-4.62-23.05h.55l4.48,22.35,12.33-22.35h.55l-21.25,38.34Z"/>
        </g>
        <circle class="cls-2" cx="182.62" cy="88.94" r="2.17"/>
      </g>
    </g>
  </g>
</svg>