<?xml version="1.0" encoding="UTF-8"?>
<svg id="Capa_2" data-name="Capa 2" xmlns="http://www.w3.org/2000/svg" xmlns:xlink="http://www.w3.org/1999/xlink" viewBox="0 0 375 211">
  <defs>
    <style>
      .cls-1 {
        stroke-width: .36px;
      }

      .cls-1, .cls-2, .cls-3 {
        stroke: #fff;
        stroke-miterlimit: 10;
      }

      .cls-1, .cls-2, .cls-3, .cls-4 {
        fill: #fff;
      }

      .cls-2 {
        stroke-width: .21px;
      }

      .cls-3 {
        stroke-width: 1.35px;
      }

      .cls-4, .cls-5 {
        stroke-width: 0px;
      }

      .cls-5 {
        fill: #e38520;
        filter: url(#drop-shadow-1);
      }
    </style>
    <filter id="drop-shadow-1" filterUnits="userSpaceOnUse">
      <feOffset dx="0" dy="0"/>
      <feGaussianBlur result="blur" stdDeviation="13.4"/>
      <feFlood flood-color="#a3a3a3" flood-opacity="1"/>
      <feComposite in2="blur" operator="in"/>
      <feComposite in="SourceGraphic"/>
    </filter>
  </defs>
  <g id="Capa_1-2" data-name="Capa 1">
    <g>
      <rect class="cls-5" x="40.35" y="40.85" width="293.17" height="128.71" rx="64.35" ry="64.35"/>
      <g>
        <path class="cls-4" d="M172.32,97.85c.46-.03.92-.09,1.38-.09,2.5,0,5-.05,7.5.02.96.03,1.41-.3,1.76-1.18,2.5-6.1,5.04-12.18,7.58-18.26.1-.24.22-.48.39-.85,1.91.91,3.78,1.8,5.83,2.78,0-1.27-.05-2.41.03-3.55.03-.43.23-.99.55-1.23,4.05-3.14,8.14-6.24,12.23-9.34.1-.08.24-.1.4-.15,2.85,4.73,5.69,9.46,8.56,14.23.63-.17,1.17-.31,1.82-.49.62,1.89,1.28,3.73,1.8,5.6.26.95.74,1.24,1.68,1.26,1.53.04,3.44-.27,4.48.51,1.01.76,1.15,2.69,1.65,4.12.64,1.85,1.28,3.71,1.85,5.58.22.72.58.97,1.33.95,2.01-.05,4.02-.02,6.03-.01.4,0,.81.08,1.21.12l-.02.39h-68.01c0-.14,0-.28-.01-.43ZM183.22,97.65h48.21c-.96-2.83-1.88-5.53-2.83-8.33-1.43,1-2.66,1.86-4.13,2.88.69-1.75,1.28-3.25,1.97-5-1.31,0-2.38.09-3.42-.04-.44-.05-1.01-.48-1.18-.88-.53-1.26-.9-2.58-1.34-3.93-1.09.2-2.04.47-3.01.52-1.04.05-1.45.57-1.74,1.48-.49,1.58-1.08,3.13-1.64,4.69-.23-2.03-.27-4-.2-5.96.02-.45.31-1,.64-1.32.87-.82,1.83-1.54,2.74-2.28-2.55-4.26-5.04-8.4-7.61-12.69-2.02,4.42-3.88,8.71-5.93,12.91-1.02,2.1-1.19,4.24-1.12,6.48.06,1.85.01,3.7.01,5.54-1.36-2.12-2.4-4.31-3.46-6.49-.19-.38-.41-.87-.75-1.03-1.39-.65-2.83-1.18-4.46-1.84.28.94.75,1.68.64,2.34-.11.69-.77,1.28-1.18,1.92l-.36-.02c.78-2.85-1.33-3.88-3-5.28-2.3,5.47-4.55,10.83-6.86,16.34Z"/>
        <circle class="cls-2" cx="203.16" cy="139.19" r=".82"/>
        <circle class="cls-2" cx="207.73" cy="138.94" r="1.03"/>
        <circle class="cls-2" cx="209.89" cy="135.29" r=".72"/>
        <circle class="cls-2" cx="216.11" cy="132.58" r=".82"/>
        <circle class="cls-2" cx="222.99" cy="127.74" r=".93"/>
        <circle class="cls-2" cx="214.22" cy="135.71" r=".93"/>
        <circle class="cls-2" cx="211.87" cy="131.82" r="1.13"/>
        <circle class="cls-2" cx="219.4" cy="126.96" r="1.13"/>
        <circle class="cls-2" cx="221.43" cy="130.39" r=".62"/>
        <circle class="cls-2" cx="217.63" cy="129.89" r=".62"/>
        <circle class="cls-2" cx="200.68" cy="134.93" r="1.03"/>
        <circle class="cls-2" cx="198.05" cy="130.36" r="1.24"/>
        <circle class="cls-2" cx="205.31" cy="143.17" r="1.24"/>
        <circle class="cls-1" cx="129.27" cy="95.75" r="2.1"/>
        <circle class="cls-2" cx="195.49" cy="125.89" r="1.44"/>
        <g>
          <path class="cls-3" d="M99.41,87.74h7.08c5.16,0,9.27,1.82,12.33,5.46,3.06,3.64,4.25,8.07,3.56,13.29-.69,5.25-3.13,9.69-7.34,13.31-4.2,3.63-9.1,5.44-14.7,5.44h-7.55l6.61-37.5ZM99.84,88.26l-6.42,36.47h7.03c5.37,0,10.13-1.77,14.25-5.32,4.13-3.55,6.52-7.85,7.17-12.92.66-5.03-.51-9.33-3.49-12.89-2.98-3.56-6.98-5.34-11.98-5.34h-6.56Z"/>
          <path class="cls-3" d="M124.12,125.24h-.56l4.13-23.44h.56l-4.13,23.44Z"/>
          <path class="cls-3" d="M138.46,112.3c-.91-.25-1.59-.46-2.06-.63-.47-.17-.94-.43-1.41-.77-.47-.34-.83-.78-1.08-1.31-.5-.81-.69-1.89-.56-3.23.25-1.66,1.03-3.06,2.34-4.22,1.31-1.16,2.78-1.73,4.41-1.73,1.5,0,2.74.49,3.73,1.48.98.98,1.48,2.2,1.48,3.63l-.52.14c0-1.34-.45-2.47-1.36-3.38-.91-.91-2.05-1.36-3.42-1.36-1.47,0-2.81.53-4.01,1.59-1.2,1.06-1.91,2.34-2.13,3.84-.09,1.19.05,2.17.42,2.95.34.69.82,1.19,1.43,1.5.61.31,1.55.66,2.84,1.03,1.19.34,2.05.61,2.6.8.55.19,1.12.5,1.73.94.61.44,1.07.98,1.38,1.64.62,1.31.8,2.67.52,4.08-.25,2.03-1.2,3.77-2.84,5.2-1.64,1.44-3.48,2.16-5.51,2.16s-3.53-.66-4.78-1.99c-1.25-1.33-1.86-3.01-1.83-5.04l.52-.09c-.03,1.88.54,3.45,1.71,4.71,1.17,1.27,2.66,1.9,4.48,1.9,1.91,0,3.61-.67,5.11-2.02,1.5-1.34,2.37-2.95,2.63-4.83.25-1.37.09-2.64-.47-3.8-.28-.59-.71-1.09-1.29-1.5-.58-.41-1.1-.7-1.57-.87-.47-.17-1.3-.44-2.48-.82Z"/>
          <path class="cls-3" d="M169.31,122.43l.23.33c-2.91,2.59-6.16,3.89-9.75,3.89s-6.54-1.28-8.74-3.84c-2.2-2.56-3.05-5.66-2.55-9.28.5-3.63,2.21-6.72,5.13-9.28,2.92-2.56,6.2-3.84,9.82-3.84s6.61,1.28,8.77,3.84l-.37.33c-2.19-2.44-5.02-3.66-8.49-3.66s-6.61,1.23-9.42,3.7c-2.81,2.47-4.45,5.44-4.92,8.91s.36,6.44,2.48,8.91c2.13,2.47,4.92,3.7,8.39,3.7s6.61-1.23,9.42-3.7Z"/>
          <path class="cls-3" d="M178.19,104.24c2.92-2.56,6.2-3.84,9.82-3.84s6.54,1.28,8.74,3.84c2.2,2.56,3.05,5.66,2.56,9.28-.5,3.63-2.21,6.72-5.13,9.28-2.92,2.56-6.2,3.84-9.82,3.84s-6.54-1.28-8.74-3.84c-2.2-2.56-3.05-5.66-2.56-9.28.5-3.63,2.21-6.72,5.13-9.28ZM196.31,104.62c-2.13-2.47-4.92-3.7-8.39-3.7s-6.61,1.23-9.42,3.7c-2.81,2.47-4.45,5.44-4.92,8.91-.47,3.47.36,6.44,2.48,8.91,2.12,2.47,4.92,3.7,8.39,3.7s6.61-1.23,9.42-3.7c2.81-2.47,4.45-5.44,4.92-8.91.47-3.47-.36-6.44-2.48-8.91Z"/>
          <path class="cls-3" d="M206.49,126.65l-5.06-24.85h.56l4.73,23.39,13.03-23.39h.56l-13.83,24.85Z"/>
          <path class="cls-3" d="M237.61,123.13l.28.37c-2.53,2.09-5.38,3.14-8.53,3.14-3.63,0-6.54-1.28-8.74-3.84-2.2-2.56-3.05-5.66-2.56-9.28.5-3.63,2.21-6.72,5.13-9.28,2.92-2.56,6.2-3.84,9.82-3.84s6.3,1.26,8.2,3.77c1.91,2.52,2.61,5.63,2.11,9.35l-.14.42h-24.66c-.34,3.38.54,6.25,2.65,8.63,2.11,2.38,4.87,3.56,8.27,3.56,2.94,0,5.66-1,8.16-3ZM218.63,113.43h24.19c.5-3.56-.14-6.52-1.92-8.86-1.84-2.44-4.5-3.66-7.97-3.66s-6.56,1.23-9.35,3.68c-2.8,2.45-4.45,5.4-4.95,8.84Z"/>
          <path class="cls-3" d="M249.85,101.8l-.42,2.53c.69-1.16,1.63-2.1,2.84-2.84,1.2-.73,2.48-1.1,3.82-1.1,1.59,0,2.89.5,3.89,1.5l-.42.42c-.94-.94-2.13-1.41-3.56-1.41-1.66,0-3.17.59-4.55,1.76-1.38,1.17-2.2,2.59-2.48,4.24l-3.23,18.33h-.52l4.13-23.44h.52Z"/>
          <path class="cls-3" d="M259.5,140.71h-.56l8.63-15.52-4.69-23.39h.56l4.55,22.69,12.52-22.69h.56l-21.56,38.91Z"/>
        </g>
      </g>
    </g>
  </g>
</svg>