<?xml version="1.0" encoding="UTF-8"?>
<svg id="Capa_2" data-name="Capa 2" xmlns="http://www.w3.org/2000/svg" xmlns:xlink="http://www.w3.org/1999/xlink" viewBox="0 0 612 238">
  <defs>
    <style>
      .cls-1 {
        stroke-width: .65px;
      }

      .cls-1, .cls-2 {
        stroke: #393f79;
      }

      .cls-1, .cls-2, .cls-3 {
        stroke-miterlimit: 10;
      }

      .cls-1, .cls-4, .cls-3 {
        fill: #fff;
      }

      .cls-2 {
        fill: #393f79;
        filter: url(#drop-shadow-1);
        stroke-width: 1.68px;
      }

      .cls-4 {
        stroke-width: 0px;
      }

      .cls-3 {
        stroke: #fff;
        stroke-width: 1.5px;
      }
    </style>
    <filter id="drop-shadow-1" filterUnits="userSpaceOnUse">
      <feOffset dx="0" dy="0"/>
      <feGaussianBlur result="blur" stdDeviation="17.58"/>
      <feFlood flood-color="#a3a3a3" flood-opacity="1"/>
      <feComposite in2="blur" operator="in"/>
      <feComposite in="SourceGraphic"/>
    </filter>
  </defs>
  <g id="Capa_1-2" data-name="Capa 1">
    <g>
      <rect class="cls-2" x="53.7" y="54.37" width="504.18" height="128.71" rx="64.35" ry="64.35"/>
      <g>
        <g>
          <g>
            <circle class="cls-4" cx="313.67" cy="107.22" r="1.09"/>
            <path class="cls-4" d="M313.67,108.45c-.67,0-1.22-.54-1.23-1.21-.01-.68.53-1.24,1.21-1.25.34,0,.64.12.87.35.24.23.37.54.37.86.01.68-.53,1.24-1.21,1.25h-.02ZM312.72,107.24c0,.52.43.94.95.94,0,0,0,0,.01,0,.52,0,.94-.44.94-.97,0-.25-.11-.49-.29-.67-.18-.17-.41-.27-.66-.27,0,0-.01,0-.01,0-.25,0-.49.11-.67.29-.18.18-.27.42-.27.68Z"/>
          </g>
          <g>
            <circle class="cls-4" cx="320.09" cy="98.95" r="1.09"/>
            <path class="cls-4" d="M320.09,100.18c-.67,0-1.22-.54-1.23-1.21,0-.33.12-.64.35-.87.23-.24.54-.37.86-.37.33,0,.64.12.87.35.24.23.37.54.37.86.01.68-.53,1.24-1.21,1.25h-.02ZM320.09,98s-.01,0-.01,0c-.25,0-.49.11-.67.29-.18.18-.27.42-.27.68s.11.49.29.67c.18.17.41.27.66.27,0,0,.01,0,.01,0,.52,0,.94-.44.94-.97,0-.25-.11-.49-.29-.67-.18-.17-.41-.27-.66-.27Z"/>
          </g>
          <g>
            <circle class="cls-4" cx="299.56" cy="93.53" r="1.09"/>
            <path class="cls-4" d="M299.56,94.76c-.32,0-.62-.12-.86-.35-.24-.23-.37-.54-.37-.86-.01-.68.53-1.24,1.21-1.25h.02c.67,0,1.22.54,1.23,1.21.01.68-.53,1.24-1.21,1.25h-.02ZM298.61,93.54c0,.25.11.49.29.67.18.18.44.27.68.27.25,0,.49-.11.67-.29.18-.18.27-.42.27-.68,0-.52-.43-.94-.95-.94,0,0,0,0-.01,0-.52,0-.94.44-.94.97Z"/>
          </g>
          <g>
            <circle class="cls-4" cx="311.45" cy="86.26" r="1.36"/>
            <path class="cls-4" d="M311.44,87.76c-.82,0-1.49-.66-1.5-1.48,0-.4.14-.78.42-1.07.28-.29.65-.45,1.06-.46h.02c.39,0,.76.15,1.05.42.29.28.45.65.46,1.06,0,.4-.14.78-.42,1.07-.28.29-.65.45-1.06.46h-.02ZM311.45,85.04s-.01,0-.02,0c-.33,0-.63.14-.86.37-.23.23-.35.54-.35.87.01.67.56,1.21,1.22,1.21,0,0,.01,0,.02,0,.33,0,.63-.14.86-.37.23-.23.35-.54.35-.87,0-.33-.14-.63-.37-.86-.23-.22-.53-.35-.85-.35Z"/>
          </g>
          <g>
            <circle class="cls-4" cx="307.5" cy="86.73" r=".95"/>
            <path class="cls-4" d="M307.5,87.82c-.29,0-.56-.11-.76-.31-.21-.2-.33-.48-.33-.77,0-.6.47-1.1,1.08-1.11.31,0,.57.11.78.31.21.2.33.48.33.77,0,.6-.47,1.1-1.08,1.11h-.02ZM306.68,86.74c0,.22.09.42.25.57.15.15.35.23.57.23,0,0,0,0,.01,0,.45,0,.81-.38.8-.83,0-.22-.09-.42-.25-.57-.16-.15-.38-.22-.58-.23-.45,0-.81.38-.8.83h0Z"/>
          </g>
          <g>
            <circle class="cls-4" cx="314.15" cy="102.85" r="1.36"/>
            <path class="cls-4" d="M314.15,104.36c-.39,0-.76-.15-1.05-.42-.29-.28-.45-.65-.46-1.06h0c0-.4.14-.78.42-1.07.28-.29.65-.45,1.06-.46h.02c.82,0,1.49.66,1.5,1.48.01.83-.65,1.51-1.48,1.52h-.02ZM314.15,101.63s-.01,0-.02,0c-.33,0-.63.14-.86.37-.23.23-.35.54-.35.87h0c0,.33.14.63.37.86.23.23.54.36.87.35.68-.01,1.22-.57,1.21-1.24-.01-.67-.56-1.21-1.22-1.21Z"/>
          </g>
          <g>
            <circle class="cls-4" cx="320.58" cy="95.12" r="1.36"/>
            <path class="cls-4" d="M320.58,96.62c-.82,0-1.49-.66-1.5-1.48-.01-.83.65-1.51,1.48-1.52h.02c.39,0,.76.15,1.05.42.29.28.45.65.46,1.06,0,.4-.14.78-.42,1.07-.28.29-.65.45-1.06.46h-.02ZM319.35,95.14c.01.67.56,1.21,1.22,1.21,0,0,.01,0,.02,0,.33,0,.63-.14.86-.37.23-.23.35-.54.35-.87s-.14-.63-.37-.86c-.23-.23-.54-.36-.87-.35-.68.01-1.22.57-1.21,1.24Z"/>
          </g>
          <g>
            <circle class="cls-4" cx="320.51" cy="90.49" r="1.64"/>
            <path class="cls-4" d="M320.51,92.26c-.97,0-1.76-.78-1.77-1.75,0-.47.17-.92.5-1.26.33-.34.77-.53,1.25-.54.97,0,1.79.77,1.8,1.75,0,.47-.17.92-.5,1.26-.33.34-.77.53-1.25.54h-.03ZM320.51,88.99s-.02,0-.02,0c-.4,0-.77.17-1.05.45-.28.29-.43.66-.42,1.06.01.82.68,1.47,1.5,1.47,0,0,.02,0,.02,0,.4,0,.77-.17,1.05-.45.28-.29.43-.66.42-1.06-.01-.82-.68-1.47-1.5-1.47Z"/>
          </g>
          <g>
            <circle class="cls-4" cx="315.8" cy="85.92" r="1.64"/>
            <path class="cls-4" d="M315.8,87.7c-.46,0-.9-.18-1.24-.5-.34-.33-.53-.77-.54-1.25-.01-.98.77-1.79,1.75-1.8h.03c.97,0,1.76.78,1.77,1.75,0,.47-.17.92-.5,1.26-.33.34-.77.53-1.25.54h-.03ZM315.8,84.43s-.02,0-.02,0c-.83.01-1.49.69-1.47,1.52,0,.4.17.77.45,1.05.28.27.65.42,1.04.42,0,0,.02,0,.02,0,.4,0,.77-.17,1.05-.45.28-.29.43-.66.42-1.06-.01-.82-.68-1.47-1.5-1.47Z"/>
          </g>
          <g>
            <circle class="cls-4" cx="320.71" cy="85.58" r="1.91"/>
            <path class="cls-4" d="M320.7,87.62c-.54,0-1.04-.2-1.43-.58-.39-.38-.61-.89-.62-1.44,0-.55.2-1.06.58-1.46s.89-.61,1.44-.62c.01,0,.02,0,.03,0,.54,0,1.04.2,1.43.58.39.38.61.89.62,1.44,0,.55-.2,1.06-.58,1.46s-.89.61-1.44.62c-.01,0-.02,0-.03,0ZM320.71,83.81s-.02,0-.03,0c-.47,0-.91.2-1.24.54-.33.34-.51.79-.5,1.26,0,.47.2.91.54,1.24.34.33.8.52,1.26.5.47,0,.91-.2,1.24-.54.33-.34.51-.79.5-1.26,0-.47-.2-.91-.54-1.24-.33-.32-.77-.5-1.23-.5Z"/>
          </g>
          <g>
            <circle class="cls-4" cx="303.91" cy="92.78" r="1.5"/>
            <path class="cls-4" d="M303.91,94.42c-.43,0-.83-.16-1.14-.46-.31-.3-.49-.71-.5-1.15-.01-.9.71-1.65,1.61-1.66h.02c.89,0,1.63.72,1.64,1.61,0,.44-.16.85-.46,1.17-.3.31-.71.49-1.15.5h-.03ZM302.55,92.8c.01.74.62,1.34,1.36,1.34,0,0,.01,0,.02,0,.75-.01,1.35-.63,1.34-1.38-.01-.74-.62-1.34-1.36-1.34,0,0-.01,0-.02,0-.75.01-1.35.63-1.34,1.38h0Z"/>
          </g>
          <g>
            <circle class="cls-4" cx="308.81" cy="92.44" r="1.77"/>
            <path class="cls-4" d="M308.81,94.35c-1.04,0-1.9-.84-1.91-1.88-.02-1.05.83-1.92,1.88-1.94.01,0,.02,0,.03,0,.5,0,.97.19,1.33.54.37.36.57.83.58,1.34,0,.51-.18.99-.54,1.36-.36.37-.83.57-1.34.58,0,0-.02,0-.03,0ZM308.81,90.8s-.02,0-.02,0c-.44,0-.84.18-1.15.5-.3.31-.47.73-.46,1.16,0,.44.18.84.5,1.15.31.3.71.46,1.14.46,0,0,.02,0,.02,0,.9-.01,1.62-.76,1.61-1.66-.01-.89-.74-1.61-1.63-1.61Z"/>
          </g>
          <g>
            <circle class="cls-4" cx="314.21" cy="97.81" r="1.77"/>
            <path class="cls-4" d="M314.21,99.72c-.5,0-.97-.19-1.33-.54-.37-.36-.57-.83-.58-1.34,0-.51.18-.99.54-1.36.36-.37.83-.57,1.34-.58.01,0,.02,0,.03,0,.5,0,.97.19,1.33.54.37.36.57.83.58,1.34,0,.51-.18.99-.54,1.36-.36.37-.83.57-1.34.58-.01,0-.02,0-.03,0ZM314.21,96.17s-.02,0-.02,0c-.44,0-.84.18-1.15.5-.3.31-.47.73-.46,1.16,0,.44.18.84.5,1.15.31.3.71.46,1.14.46,0,0,.02,0,.02,0,.9-.01,1.62-.76,1.61-1.66-.01-.89-.74-1.61-1.63-1.61Z"/>
          </g>
          <g>
            <circle class="cls-4" cx="314.39" cy="91.94" r="2.18"/>
            <path class="cls-4" d="M314.39,94.26c-1.26,0-2.3-1.02-2.32-2.29h0c-.02-1.28,1.01-2.34,2.29-2.36.61,0,1.21.22,1.65.65s.69,1.01.7,1.63c0,.62-.22,1.21-.65,1.65-.43.44-1.01.69-1.63.7-.01,0-.02,0-.04,0ZM312.35,91.97c.02,1.12.93,2.01,2.04,2.01.01,0,.02,0,.03,0,.55,0,1.06-.23,1.43-.62.38-.39.58-.91.58-1.45,0-.55-.23-1.05-.62-1.43-.38-.37-.89-.58-1.42-.58-.01,0-.02,0-.03,0-1.13.02-2.03.95-2.01,2.07h0Z"/>
          </g>
        </g>
        <circle class="cls-1" cx="463.81" cy="110.49" r="2.08"/>
        <g>
          <path class="cls-3" d="M142.97,134.31l.32.36c-3.54,3.81-8.34,5.72-14.39,5.72-3.54,0-6.66-.87-9.35-2.61-2.69-1.74-4.68-4.1-5.95-7.08-1.27-2.98-1.68-6.26-1.23-9.83.48-3.78,1.83-7.18,4.04-10.19,2.21-3.01,4.94-5.32,8.19-6.92,3.25-1.6,6.68-2.41,10.28-2.41,5.36,0,9.62,1.91,12.8,5.72l-.45.36c-1.42-1.75-3.21-3.12-5.36-4.11-2.15-.98-4.51-1.48-7.08-1.48-3.48,0-6.81.8-9.99,2.41-3.18,1.6-5.85,3.87-8.01,6.81-2.16,2.94-3.47,6.2-3.93,9.8-.7,5.3.51,9.79,3.61,13.48,3.1,3.69,7.27,5.54,12.51,5.54,5.87,0,10.53-1.86,13.98-5.58Z"/>
          <path class="cls-3" d="M168.08,116.24l-2.59,14.8c-.45,2.6-1.6,4.8-3.45,6.58-1.85,1.79-4.02,2.68-6.54,2.68-2.97,0-5.24-.89-6.83-2.68-1.59-1.79-2.16-3.98-1.7-6.58l2.59-14.8h.5l-2.59,14.8c-.45,2.45.08,4.52,1.59,6.22s3.69,2.54,6.54,2.54c2.36,0,4.4-.84,6.13-2.52s2.81-3.76,3.27-6.24l2.59-14.8h.5Z"/>
          <path class="cls-3" d="M169.85,138.94h-.54l6.4-36.31h.54l-6.4,36.31Z"/>
          <path class="cls-3" d="M185.87,102.63l-2.41,13.62h6.4l-.09.5h-6.4l-3.9,22.2h-.5l3.9-22.2h-4.49l.09-.5h4.49l2.41-13.62h.5Z"/>
          <path class="cls-3" d="M212.01,116.24l-2.59,14.8c-.45,2.6-1.6,4.8-3.45,6.58-1.85,1.79-4.02,2.68-6.54,2.68-2.97,0-5.24-.89-6.83-2.68-1.59-1.79-2.16-3.98-1.7-6.58l2.59-14.8h.5l-2.59,14.8c-.45,2.45.08,4.52,1.59,6.22s3.69,2.54,6.54,2.54c2.36,0,4.4-.84,6.13-2.52s2.81-3.76,3.27-6.24l2.59-14.8h.5Z"/>
          <path class="cls-3" d="M217.64,116.24l-.41,2.45c.67-1.12,1.58-2.03,2.75-2.75,1.16-.71,2.4-1.07,3.7-1.07,1.54,0,2.8.48,3.77,1.45l-.41.41c-.91-.91-2.06-1.36-3.45-1.36-1.6,0-3.07.57-4.4,1.7-1.33,1.13-2.13,2.5-2.41,4.11l-3.13,17.75h-.5l3.99-22.7h.5Z"/>
          <path class="cls-3" d="M246.15,138.94l.64-3.68c-2.97,3.36-6.33,5.04-10.08,5.04-3.51,0-6.33-1.24-8.47-3.72-2.13-2.48-2.96-5.48-2.47-8.99.48-3.51,2.14-6.51,4.97-8.99,2.83-2.48,6-3.72,9.51-3.72,2.03,0,3.84.45,5.45,1.36,1.6.91,2.87,2.15,3.81,3.72l.64-3.72h.5l-3.99,22.7h-.5ZM246.96,134.36l2.36-13.48c-.76-1.69-1.96-3.03-3.61-4.02-1.65-.98-3.5-1.48-5.56-1.48-3.36,0-6.4,1.2-9.12,3.59-2.72,2.39-4.31,5.27-4.77,8.62-.45,3.36.35,6.23,2.41,8.62,2.06,2.39,4.77,3.59,8.12,3.59,3.78,0,7.17-1.82,10.17-5.45Z"/>
          <path class="cls-3" d="M290.87,117.92l11.14,21.02h-1.09l-10.72-20.27-17.84,20.27h-1.17l18.51-21.02-11.06-20.85h1.09l10.72,20.02,17.67-20.02h1.17l-18.43,20.85Z"/>
          <path class="cls-3" d="M311.15,116.24l-.64,3.63c1.15-1.54,2.62-2.76,4.4-3.65,1.79-.89,3.71-1.34,5.76-1.34,3.51,0,6.35,1.25,8.51,3.74,2.16,2.5,3,5.5,2.52,9.01-.48,3.51-2.16,6.51-5.02,9.01-2.86,2.5-6.06,3.74-9.6,3.74-2.06,0-3.88-.45-5.47-1.34-1.59-.89-2.87-2.11-3.84-3.65l-3.27,18.52h-.5l6.63-37.67h.5ZM310.28,121.01l-2.27,13.53c2,3.57,5.05,5.36,9.17,5.36,3.39,0,6.46-1.2,9.21-3.61,2.75-2.41,4.36-5.29,4.81-8.65.45-3.39-.36-6.28-2.43-8.67-2.07-2.39-4.8-3.59-8.19-3.59-2.09,0-4.03.5-5.83,1.5-1.8,1-3.29,2.38-4.47,4.13Z"/>
          <path class="cls-3" d="M339.58,118.61c2.83-2.48,6-3.72,9.51-3.72s6.33,1.24,8.47,3.72c2.13,2.48,2.96,5.48,2.47,8.99-.48,3.51-2.14,6.51-4.97,8.99-2.83,2.48-6,3.72-9.51,3.72s-6.33-1.24-8.47-3.72c-2.13-2.48-2.96-5.48-2.47-8.99.48-3.51,2.14-6.51,4.97-8.99ZM357.13,118.97c-2.06-2.39-4.77-3.59-8.12-3.59s-6.4,1.2-9.12,3.59c-2.72,2.39-4.31,5.27-4.77,8.62-.45,3.36.35,6.23,2.41,8.62,2.06,2.39,4.77,3.59,8.12,3.59s6.4-1.2,9.12-3.59c2.72-2.39,4.31-5.27,4.77-8.62.45-3.36-.35-6.23-2.41-8.62Z"/>
          <path class="cls-3" d="M366.66,116.24l-.86,4.9c.94-1.85,2.31-3.35,4.13-4.52,1.82-1.16,3.72-1.75,5.72-1.75,2.57,0,4.6.91,6.08,2.72,1.48,1.82,2,3.99,1.54,6.54l-2.59,14.8h-.5l2.59-14.8c.42-2.39-.07-4.45-1.48-6.17-1.41-1.72-3.32-2.59-5.74-2.59s-4.6.86-6.63,2.56c-2.03,1.71-3.25,3.78-3.68,6.2l-2.59,14.8h-.5l3.99-22.7h.5Z"/>
          <path class="cls-3" d="M404.6,136.9l.27.36c-2.45,2.03-5.2,3.04-8.26,3.04-3.51,0-6.33-1.24-8.47-3.72-2.13-2.48-2.96-5.48-2.47-8.99.48-3.51,2.14-6.51,4.97-8.99,2.83-2.48,6-3.72,9.51-3.72s6.1,1.22,7.94,3.65c1.85,2.44,2.53,5.45,2.04,9.06l-.14.41h-23.88c-.33,3.27.52,6.05,2.56,8.35,2.04,2.3,4.71,3.45,8.01,3.45,2.84,0,5.48-.97,7.9-2.91ZM386.22,127.5h23.42c.48-3.45-.14-6.31-1.86-8.58-1.79-2.36-4.36-3.54-7.72-3.54s-6.35,1.19-9.06,3.56c-2.71,2.38-4.3,5.23-4.79,8.56Z"/>
          <path class="cls-3" d="M416.45,116.24l-.86,4.9c.94-1.85,2.31-3.35,4.13-4.52,1.82-1.16,3.72-1.75,5.72-1.75,2.57,0,4.6.91,6.08,2.72,1.48,1.82,2,3.99,1.54,6.54l-2.59,14.8h-.5l2.59-14.8c.42-2.39-.07-4.45-1.48-6.17-1.41-1.72-3.32-2.59-5.74-2.59s-4.6.86-6.63,2.56c-2.03,1.71-3.25,3.78-3.68,6.2l-2.59,14.8h-.5l3.99-22.7h.5Z"/>
          <path class="cls-3" d="M455.89,136.22l.23.32c-2.81,2.51-5.96,3.77-9.44,3.77s-6.33-1.24-8.47-3.72-2.96-5.48-2.47-8.99c.48-3.51,2.14-6.51,4.97-8.99,2.83-2.48,6-3.72,9.51-3.72s6.4,1.24,8.49,3.72l-.36.32c-2.12-2.36-4.86-3.54-8.22-3.54s-6.4,1.2-9.12,3.59c-2.72,2.39-4.31,5.27-4.77,8.62-.45,3.36.35,6.23,2.41,8.62,2.06,2.39,4.77,3.59,8.12,3.59s6.4-1.2,9.12-3.59Z"/>
          <path class="cls-3" d="M459.57,138.94h-.54l3.99-22.7h.54l-3.99,22.7Z"/>
          <path class="cls-3" d="M486.4,138.94l.64-3.68c-2.97,3.36-6.33,5.04-10.08,5.04-3.51,0-6.33-1.24-8.47-3.72-2.13-2.48-2.96-5.48-2.47-8.99.48-3.51,2.14-6.51,4.97-8.99,2.83-2.48,6-3.72,9.51-3.72,2.03,0,3.84.45,5.45,1.36,1.6.91,2.87,2.15,3.81,3.72l.64-3.72h.5l-3.99,22.7h-.5ZM487.21,134.36l2.36-13.48c-.76-1.69-1.96-3.03-3.61-4.02-1.65-.98-3.5-1.48-5.56-1.48-3.36,0-6.4,1.2-9.12,3.59-2.72,2.39-4.31,5.27-4.77,8.62-.45,3.36.35,6.23,2.41,8.62,2.06,2.39,4.77,3.59,8.12,3.59,3.78,0,7.17-1.82,10.17-5.45Z"/>
          <path class="cls-3" d="M492.98,138.94h-.54l6.4-36.31h.54l-6.4,36.31Z"/>
        </g>
      </g>
    </g>
  </g>
</svg>