<?xml version="1.0" encoding="UTF-8"?>
<svg id="Capa_2" data-name="Capa 2" xmlns="http://www.w3.org/2000/svg" viewBox="0 0 485.36 202.56">
  <defs>
    <style>
      .cls-1 {
        stroke-width: 2px;
      }

      .cls-1, .cls-2 {
        fill: #e38520;
        stroke: #e38520;
        stroke-miterlimit: 10;
      }

      .cls-2 {
        stroke-width: 3px;
      }
    </style>
  </defs>
  <g id="Capa_1-2" data-name="Capa 1">
    <g>
      <path class="cls-1" d="M204.96,82.62c1.17-.08,2.35-.23,3.52-.23,6.39-.02,12.78-.13,19.16.05,2.45.07,3.59-.77,4.5-3.01,6.38-15.59,12.89-31.12,19.36-46.66.26-.62.57-1.23.99-2.16,4.88,2.33,9.65,4.61,14.89,7.11,0-3.26-.13-6.17.07-9.06.07-1.1.6-2.52,1.42-3.15,10.36-8.03,20.81-15.94,31.25-23.87.26-.2.62-.25,1.02-.4,7.28,12.09,14.54,24.17,21.87,36.35,1.6-.43,2.98-.8,4.65-1.24,1.58,4.83,3.27,9.52,4.6,14.31.67,2.42,1.9,3.16,4.3,3.22,3.91.1,8.78-.68,11.44,1.32,2.59,1.94,2.95,6.89,4.21,10.54,1.63,4.74,3.27,9.47,4.73,14.26.57,1.85,1.48,2.48,3.41,2.43,5.13-.13,10.26-.06,15.4-.03,1.03,0,2.06.2,3.09.31l-.06,1h-173.77c-.01-.36-.02-.73-.03-1.09ZM232.8,82.11h123.18c-2.46-7.23-4.8-14.14-7.23-21.29-3.66,2.55-6.79,4.74-10.55,7.36,1.76-4.48,3.27-8.31,5.03-12.77-3.34,0-6.08.22-8.74-.11-1.11-.14-2.59-1.23-3.02-2.26-1.35-3.21-2.29-6.59-3.43-10.05-2.78.5-5.22,1.21-7.69,1.32-2.66.12-3.71,1.45-4.44,3.77-1.26,4.04-2.77,7.99-4.18,11.99-.59-5.2-.69-10.22-.51-15.23.04-1.16.78-2.55,1.64-3.37,2.21-2.1,4.68-3.93,7-5.83-6.52-10.88-12.87-21.47-19.44-32.43-5.15,11.29-9.92,22.26-15.15,33-2.61,5.36-3.05,10.82-2.85,16.56.16,4.72.03,9.44.03,14.16-3.48-5.41-6.13-11.01-8.85-16.59-.48-.98-1.06-2.24-1.93-2.64-3.56-1.65-7.24-3.02-11.4-4.7.73,2.39,1.91,4.3,1.65,5.97-.28,1.75-1.96,3.28-3.02,4.9-.31-.02-.61-.04-.92-.06,1.99-7.29-3.39-9.91-7.66-13.48-5.87,13.98-11.62,27.68-17.52,41.76Z"/>
      <circle class="cls-1" cx="283.76" cy="188.24" r="2.11"/>
      <circle class="cls-1" cx="295.43" cy="187.59" r="2.63"/>
      <circle class="cls-1" cx="300.94" cy="178.26" r="1.84"/>
      <circle class="cls-1" cx="316.84" cy="171.35" r="2.11"/>
      <circle class="cls-1" cx="334.43" cy="158.98" r="2.37"/>
      <circle class="cls-1" cx="312" cy="179.34" r="2.37"/>
      <circle class="cls-1" cx="306.01" cy="169.41" r="2.9"/>
      <circle class="cls-1" cx="325.25" cy="156.99" r="2.9"/>
      <circle class="cls-1" cx="330.42" cy="165.76" r="1.58"/>
      <circle class="cls-1" cx="320.74" cy="164.46" r="1.58"/>
      <circle class="cls-1" cx="277.42" cy="177.35" r="2.63"/>
      <circle class="cls-1" cx="270.69" cy="165.67" r="3.16"/>
      <circle class="cls-1" cx="289.24" cy="198.4" r="3.16"/>
      <circle class="cls-1" cx="264.16" cy="154.24" r="3.69"/>
      <path class="cls-2" d="M18.68,56.78h18.09c13.18,0,23.67,4.65,31.5,13.95,7.83,9.3,10.86,20.62,9.1,33.96-1.76,13.42-8.01,24.75-18.75,34.02-10.74,9.26-23.26,13.9-37.55,13.9H1.79L18.68,56.78ZM19.75,58.1L3.35,151.28h17.97c13.73,0,25.87-4.53,36.41-13.59,10.54-9.06,16.65-20.06,18.33-33,1.68-12.86-1.3-23.84-8.92-32.94-7.63-9.1-17.83-13.65-30.6-13.65h-16.77Z"/>
      <g>
        <circle class="cls-1" cx="94.96" cy="77.25" r="5.37"/>
        <path class="cls-2" d="M81.8,152.6h-1.44l10.54-59.89h1.44l-10.54,59.89Z"/>
      </g>
      <path class="cls-2" d="M118.45,119.54c-2.32-.64-4.07-1.18-5.27-1.62-1.2-.44-2.4-1.1-3.59-1.98-1.2-.88-2.12-1.99-2.75-3.35-1.28-2.08-1.76-4.83-1.44-8.27.64-4.23,2.64-7.83,5.99-10.78,3.35-2.95,7.11-4.43,11.26-4.43,3.83,0,7.01,1.26,9.52,3.77,2.51,2.52,3.77,5.61,3.77,9.28l-1.32.36c0-3.43-1.16-6.31-3.47-8.62-2.32-2.31-5.23-3.47-8.74-3.47-3.75,0-7.17,1.36-10.24,4.07-3.08,2.71-4.89,5.99-5.45,9.82-.24,3.04.12,5.55,1.08,7.55.88,1.76,2.1,3.04,3.65,3.83,1.56.8,3.97,1.68,7.25,2.63,3.03.88,5.25,1.56,6.65,2.04,1.4.48,2.87,1.28,4.43,2.4,1.56,1.12,2.73,2.51,3.53,4.19,1.6,3.35,2.04,6.83,1.32,10.42-.64,5.19-3.05,9.62-7.25,13.29-4.19,3.67-8.89,5.51-14.07,5.51s-9.02-1.7-12.22-5.09c-3.19-3.39-4.75-7.68-4.67-12.88l1.32-.24c-.08,4.79,1.38,8.8,4.37,12.04,2.99,3.23,6.81,4.85,11.44,4.85,4.87,0,9.22-1.72,13.06-5.15,3.83-3.43,6.07-7.55,6.71-12.34.64-3.51.24-6.75-1.2-9.7-.72-1.52-1.82-2.79-3.29-3.83-1.48-1.04-2.81-1.78-4.01-2.22-1.2-.44-3.31-1.14-6.35-2.1Z"/>
      <path class="cls-2" d="M197.26,145.41l.6.84c-7.43,6.63-15.73,9.94-24.91,9.94s-16.71-3.28-22.34-9.82c-5.63-6.55-7.8-14.45-6.53-23.72,1.28-9.26,5.65-17.17,13.11-23.72,7.47-6.55,15.83-9.82,25.09-9.82s16.89,3.28,22.4,9.82l-.96.84c-5.59-6.23-12.82-9.34-21.68-9.34s-16.89,3.15-24.08,9.46c-7.19,6.31-11.38,13.9-12.58,22.76-1.2,8.86.92,16.45,6.35,22.76,5.43,6.31,12.58,9.46,21.44,9.46s16.89-3.15,24.08-9.46Z"/>
      <path class="cls-2" d="M219.96,98.94c7.47-6.55,15.83-9.82,25.09-9.82s16.71,3.28,22.34,9.82c5.63,6.55,7.8,14.45,6.53,23.72-1.28,9.26-5.65,17.17-13.12,23.72-7.47,6.55-15.83,9.82-25.09,9.82s-16.71-3.28-22.34-9.82c-5.63-6.55-7.8-14.45-6.53-23.72,1.28-9.26,5.65-17.17,13.12-23.72ZM266.26,99.9c-5.43-6.31-12.58-9.46-21.44-9.46s-16.89,3.15-24.08,9.46c-7.19,6.31-11.38,13.9-12.58,22.76-1.2,8.86.92,16.45,6.35,22.76,5.43,6.31,12.58,9.46,21.44,9.46s16.89-3.15,24.08-9.46c7.19-6.31,11.38-13.9,12.58-22.76,1.2-8.86-.92-16.45-6.35-22.76Z"/>
      <path class="cls-2" d="M292.25,156.19l-12.94-63.48h1.44l12.1,59.77,33.3-59.77h1.44l-35.33,63.48Z"/>
      <path class="cls-2" d="M371.78,147.21l.72.96c-6.47,5.35-13.73,8.03-21.8,8.03-9.26,0-16.71-3.28-22.34-9.82-5.63-6.55-7.8-14.45-6.53-23.72,1.28-9.26,5.65-17.17,13.12-23.72,7.47-6.55,15.83-9.82,25.09-9.82s16.09,3.22,20.96,9.64c4.87,6.43,6.67,14.39,5.39,23.9l-.36,1.08h-63c-.88,8.63,1.38,15.97,6.77,22.04,5.39,6.07,12.44,9.1,21.14,9.1,7.5,0,14.45-2.55,20.84-7.67ZM323.27,122.42h61.81c1.28-9.1-.36-16.65-4.91-22.64-4.71-6.23-11.5-9.34-20.36-9.34s-16.75,3.13-23.9,9.4c-7.15,6.27-11.36,13.8-12.64,22.58Z"/>
      <path class="cls-2" d="M403.04,92.71l-1.08,6.47c1.76-2.95,4.17-5.37,7.25-7.25,3.07-1.88,6.33-2.82,9.76-2.82,4.07,0,7.38,1.28,9.94,3.83l-1.08,1.08c-2.4-2.4-5.43-3.59-9.1-3.59-4.23,0-8.11,1.5-11.62,4.49-3.51,2.99-5.63,6.61-6.35,10.84l-8.27,46.83h-1.32l10.54-59.89h1.32Z"/>
      <path class="cls-2" d="M427.71,192.13h-1.44l22.04-39.65-11.98-59.77h1.44l11.62,57.97,31.98-57.97h1.44l-55.1,99.42Z"/>
    </g>
  </g>
</svg>