<?xml version="1.0" encoding="UTF-8"?>
<svg id="Capa_2" data-name="Capa 2" xmlns="http://www.w3.org/2000/svg" viewBox="0 0 47.82 33.63">
  <defs>
    <style>
      .cls-1 {
        fill: #de1a4d;
        stroke-width: 0px;
      }
    </style>
  </defs>
  <g id="Capa_1-2" data-name="Capa 1">
    <g>
      <path class="cls-1" d="M2.42.34C2.99.22,3.46.11,3.94.01c.12-.02.25-.01.37-.01,13.07,0,26.14,0,39.22.01.59,0,1.18.17,1.77.26,0,.05.01.11.02.16-.11.12-.22.24-.34.35-6.56,6.58-13.13,13.15-19.66,19.75-.83.84-2.02.82-2.8.02C15.98,13.94,9.39,7.36,2.83.77c-.11-.11-.21-.22-.4-.43Z"/>
      <path class="cls-1" d="M2.48,33.21c4.83-4.78,9.62-9.53,14.45-14.3.03.03.16.14.28.26,1.14,1.15,2.28,2.29,3.43,3.44,1.94,1.94,4.62,1.94,6.55,0,1.26-1.25,2.52-2.5,3.72-3.7,4.8,4.75,9.6,9.51,14.5,14.36-.57.13-1.04.24-1.52.33-.17.03-.34.01-.51.01-12.98,0-25.95,0-38.93,0-.67,0-1.32-.08-1.97-.41Z"/>
      <path class="cls-1" d="M14.87,16.86C10.04,21.64,5.25,26.39.38,31.22c-.12-.5-.25-.99-.36-1.49-.03-.15-.01-.31-.01-.47,0-8.29,0-16.59.01-24.88,0-.65.19-1.3.29-1.96,4.89,4.85,9.69,9.61,14.56,14.43Z"/>
      <path class="cls-1" d="M47.51,2.52c.09.48.29,1.05.3,1.62.02,8.45.02,16.89,0,25.34,0,.57-.21,1.14-.32,1.71-4.87-4.82-9.66-9.58-14.46-14.34,4.81-4.76,9.63-9.53,14.48-14.33Z"/>
    </g>
  </g>
</svg>