<?xml version="1.0" encoding="UTF-8"?>
<svg id="Capa_2" data-name="Capa 2" xmlns="http://www.w3.org/2000/svg" viewBox="0 0 81.97 69.55">
  <defs>
    <style>
      .cls-1 {
        fill: #fff;
        stroke-width: 0px;
      }
    </style>
  </defs>
  <g id="Capa_1-2" data-name="Capa 1">
    <path class="cls-1" d="M31.3,69.55H0v-17.23c0-10.83,1.34-20.19,4.04-28.08,2.69-7.89,7.22-15.97,13.6-24.24l12.17,9.56c-3.06,4.47-5.32,8.32-6.77,11.55-1.45,3.23-2.88,7.54-4.28,12.92h12.54v35.52ZM81.97,69.55h-31.3v-17.23c0-10.83,1.32-20.19,3.97-28.08,2.65-7.89,7.2-15.97,13.66-24.24l12.17,9.56c-3.06,4.47-5.32,8.32-6.77,11.55-1.45,3.23-2.88,7.54-4.28,12.92h12.54v35.52Z"/>
  </g>
</svg>