<?xml version="1.0" encoding="UTF-8"?>
<svg id="Capa_2" data-name="Capa 2" xmlns="http://www.w3.org/2000/svg" viewBox="0 0 81.97 69.55">
  <defs>
    <style>
      .cls-1 {
        fill: #fff;
        stroke-width: 0px;
      }
    </style>
  </defs>
  <g id="Capa_1-2" data-name="Capa 1">
    <path class="cls-1" d="M0,0h31.3v17.23c0,10.83-1.32,20.19-3.97,28.08-2.65,7.89-7.2,15.97-13.66,24.24L1.49,59.99c3.06-4.47,5.32-8.32,6.77-11.55,1.45-3.23,2.88-7.54,4.28-12.92H0V0ZM50.67,0h31.3v17.23c0,10.83-1.35,20.19-4.04,28.08-2.69,7.89-7.22,15.97-13.6,24.24l-12.17-9.56c3.06-4.47,5.32-8.32,6.77-11.55,1.45-3.23,2.88-7.54,4.29-12.92h-12.54V0Z"/>
  </g>
</svg>