<?xml version="1.0" encoding="UTF-8"?>
<svg id="Capa_2" data-name="Capa 2" xmlns="http://www.w3.org/2000/svg" viewBox="0 0 674.57 93.26">
  <defs>
    <style>
      .cls-1 {
        fill: #e2e3e7;
      }

      .cls-1, .cls-2, .cls-3 {
        stroke-width: 0px;
      }

      .cls-2 {
        fill: #fff;
      }

      .cls-3 {
        fill: #069dc1;
      }
    </style>
  </defs>
  <g id="Capa_1-2" data-name="Capa 1">
    <g>
      <g>
        <path class="cls-2" d="M292.46,15.57c-.21-1.04-.59-1.79-1.14-2.24s-1.3-.67-2.24-.67c-.62,0-1.17.09-1.64.27s-.85.44-1.11.78-.4.72-.4,1.17.12.82.36,1.09.61.5,1.11.68,1.21.37,2.14.58c1.28.28,2.3.6,3.05.97s1.3.82,1.64,1.35.51,1.21.51,2.01-.22,1.54-.67,2.19-1.06,1.16-1.85,1.54-1.68.56-2.67.56c-1.71,0-3.08-.4-4.11-1.2s-1.65-1.97-1.87-3.51l1.87-.44c.13,1.17.54,2.05,1.22,2.64s1.62.88,2.82.88c.62,0,1.2-.1,1.73-.3s.95-.48,1.25-.84.46-.77.46-1.22c0-.6-.15-1.07-.44-1.4s-.73-.6-1.31-.81c-.48-.17-1.18-.36-2.1-.58-.55-.12-.93-.22-1.15-.28-1-.27-1.77-.59-2.33-.97s-.94-.81-1.16-1.28-.33-1.05-.33-1.7c0-.72.21-1.36.64-1.94s1.02-1.03,1.77-1.36,1.59-.49,2.52-.49c.98,0,1.85.16,2.61.49s1.36.8,1.82,1.42.74,1.36.85,2.22l-1.83.41h-.04Z"/>
        <path class="cls-2" d="M299.24,23.9h7.06v1.7h-8.96v-14.32h1.89v12.62Z"/>
        <path class="cls-2" d="M319.95,12.66c-1,0-1.84.24-2.54.73s-1.22,1.15-1.58,2.01-.54,1.83-.54,2.94c0,1.2.18,2.25.54,3.13s.88,1.57,1.57,2.04,1.52.71,2.49.71c1.11,0,2.02-.31,2.74-.92s1.22-1.51,1.5-2.68l1.85.44c-.22.99-.61,1.84-1.17,2.56s-1.25,1.27-2.08,1.65-1.75.57-2.77.57c-1.38,0-2.57-.3-3.56-.9s-1.75-1.46-2.28-2.58-.79-2.46-.79-4.02.28-2.78.84-3.88,1.35-1.95,2.35-2.54,2.15-.88,3.44-.88c1.49,0,2.73.36,3.72,1.07s1.67,1.75,2.05,3.11l-1.86.44c-.3-1.01-.77-1.76-1.43-2.26s-1.48-.74-2.5-.74Z"/>
        <path class="cls-2" d="M327.43,20.43c0-1.13.2-2.1.61-2.91s.97-1.44,1.7-1.87,1.58-.64,2.54-.64,1.82.21,2.55.62,1.3,1.03,1.7,1.84.61,1.79.61,2.93-.21,2.12-.62,2.93-.98,1.44-1.71,1.87-1.58.64-2.53.64-1.79-.21-2.52-.62-1.3-1.03-1.71-1.84-.62-1.8-.62-2.96ZM332.27,16.45c-.59,0-1.11.15-1.57.45s-.82.75-1.08,1.35-.4,1.32-.4,2.17.13,1.58.39,2.17.62,1.04,1.08,1.35.99.45,1.59.45,1.16-.16,1.62-.47.82-.77,1.07-1.37.38-1.32.38-2.16-.13-1.57-.39-2.16-.62-1.04-1.08-1.34-1-.45-1.6-.45Z"/>
        <path class="cls-2" d="M345.89,25.6v-6.78c0-.75-.19-1.33-.57-1.72s-.91-.59-1.6-.59c-.87,0-1.55.26-2.04.79s-.73,1.37-.73,2.52v5.77h-1.76v-10.36h1.64v1.45c.34-.52.79-.93,1.34-1.23s1.16-.45,1.83-.45c1.2,0,2.1.31,2.71.93s.92,1.5.92,2.66v7.01h-1.76Z"/>
        <path class="cls-2" d="M353.5,16.44c-.61,0-1.09.12-1.44.37s-.53.57-.53.97c0,.31.08.56.22.75s.39.36.72.48.79.24,1.39.34c.9.15,1.63.35,2.2.6s1,.58,1.3,1,.44.96.44,1.61-.16,1.18-.49,1.69-.79.9-1.4,1.18-1.3.42-2.08.42c-2.47,0-3.89-1.11-4.27-3.32l1.75-.28c.12.73.38,1.27.79,1.63s.98.53,1.71.53,1.25-.15,1.63-.45.57-.7.57-1.19-.22-.84-.65-1.1-1.04-.45-1.81-.57c-1.22-.19-2.15-.52-2.78-1s-.94-1.18-.94-2.09c0-.57.15-1.09.45-1.54s.73-.81,1.28-1.06,1.2-.39,1.93-.39c1.13,0,2.03.24,2.7.72s1.08,1.2,1.25,2.15l-1.72.26c-.08-.53-.32-.94-.71-1.25s-.89-.45-1.52-.45Z"/>
        <path class="cls-2" d="M361.57,22.02c0,.75.19,1.33.56,1.72s.91.59,1.61.59c.58,0,1.09-.13,1.52-.39s.75-.61.94-1.05.29-1.06.29-1.86v-5.78h1.76v10.36h-1.64v-1.44c-.37.55-.83.96-1.36,1.25s-1.14.43-1.8.43c-1.2,0-2.11-.31-2.72-.93s-.91-1.51-.91-2.66v-7.01h1.76v6.78Z"/>
        <path class="cls-2" d="M372.73,25.6h-1.76v-14.32h1.76v14.32Z"/>
        <path class="cls-2" d="M377.46,15.24h1.96v1.36h-1.96v6.28c0,.38.03.67.1.86s.17.31.31.38.33.09.57.09.56-.04.99-.13l.23,1.46c-.5.12-1.01.18-1.51.18-.63,0-1.12-.09-1.46-.28s-.59-.46-.76-.83c-.15-.35-.22-.99-.22-1.9v-6.11h-1.48v-1.36h1.48v-2.38l1.76-1.26v3.64Z"/>
        <path class="cls-2" d="M383.02,13.28h-1.76v-1.99h1.76v1.99ZM383.02,25.6h-1.76v-10.36h1.76v10.36Z"/>
        <path class="cls-2" d="M392.43,25.6v-6.78c0-.75-.19-1.33-.57-1.72s-.91-.59-1.6-.59c-.87,0-1.55.26-2.04.79s-.73,1.37-.73,2.52v5.77h-1.76v-10.36h1.64v1.45c.34-.52.79-.93,1.34-1.23s1.16-.45,1.83-.45c1.2,0,2.1.31,2.71.93s.92,1.5.92,2.66v7.01h-1.76Z"/>
        <path class="cls-2" d="M403.82,15.24h1.64v9.48c0,1.69-.38,2.96-1.13,3.81s-1.93,1.27-3.54,1.27c-1.27,0-2.25-.29-2.95-.86s-1.09-1.4-1.16-2.48l1.7.26c.08.56.32.97.72,1.24s.95.4,1.67.4c1,0,1.74-.25,2.22-.76.48-.51.72-1.56.72-3.13v-.22c-.75.91-1.75,1.36-2.97,1.36-.9,0-1.69-.22-2.38-.67s-1.22-1.07-1.59-1.86-.56-1.71-.56-2.73.17-1.98.52-2.79.85-1.43,1.51-1.88,1.46-.67,2.39-.67c.72,0,1.33.12,1.83.37s.94.62,1.33,1.1h.04v-1.24ZM400.76,16.44c-.54,0-1.02.15-1.44.44s-.74.73-.97,1.3-.35,1.26-.35,2.05.12,1.52.35,2.1.56,1.04,1,1.35.95.47,1.55.47,1.14-.16,1.58-.47.77-.76,1-1.34.34-1.27.34-2.08-.12-1.46-.37-2.04-.6-1.02-1.06-1.33-1.01-.46-1.64-.46Z"/>
        <path class="cls-2" d="M422.09,15.57c-.21-1.04-.59-1.79-1.14-2.24s-1.3-.67-2.24-.67c-.62,0-1.17.09-1.64.27s-.85.44-1.11.78-.4.72-.4,1.17.12.82.36,1.09.61.5,1.11.68,1.21.37,2.14.58c1.28.28,2.3.6,3.05.97s1.3.82,1.64,1.35.51,1.21.51,2.01-.22,1.54-.67,2.19-1.06,1.16-1.85,1.54-1.68.56-2.67.56c-1.71,0-3.08-.4-4.11-1.2s-1.65-1.97-1.87-3.51l1.87-.44c.13,1.17.54,2.05,1.22,2.64s1.62.88,2.82.88c.62,0,1.2-.1,1.73-.3s.95-.48,1.25-.84.46-.77.46-1.22c0-.6-.15-1.07-.44-1.4s-.73-.6-1.31-.81c-.48-.17-1.18-.36-2.1-.58-.55-.12-.93-.22-1.15-.28-1-.27-1.77-.59-2.33-.97s-.94-.81-1.16-1.28-.33-1.05-.33-1.7c0-.72.21-1.36.64-1.94s1.02-1.03,1.77-1.36,1.59-.49,2.52-.49c.98,0,1.85.16,2.61.49s1.36.8,1.82,1.42.74,1.36.85,2.22l-1.83.41h-.04Z"/>
        <path class="cls-2" d="M429.02,25.6h-2.21v-2.2h2.21v2.2Z"/>
        <path class="cls-2" d="M444.44,25.6h-2.11l-1.68-4.36h-5.97l-1.6,4.36h-1.98l5.48-14.32h2.04l5.82,14.32ZM436.7,15.7l-1.48,4.04h4.85l-1.56-4.06c-.16-.43-.31-.86-.45-1.3s-.29-.97-.46-1.6h-.04c-.19.89-.48,1.87-.86,2.92Z"/>
        <path class="cls-2" d="M448.04,25.6h-2.21v-2.2h2.21v2.2Z"/>
        <path class="cls-2" d="M459.21,15.57c-.21-1.04-.59-1.79-1.14-2.24s-1.3-.67-2.24-.67c-.62,0-1.17.09-1.64.27s-.85.44-1.11.78-.4.72-.4,1.17.12.82.36,1.09.61.5,1.11.68,1.21.37,2.14.58c1.28.28,2.3.6,3.05.97s1.3.82,1.64,1.35.51,1.21.51,2.01-.22,1.54-.67,2.19-1.06,1.16-1.85,1.54-1.68.56-2.67.56c-1.71,0-3.08-.4-4.11-1.2s-1.65-1.97-1.87-3.51l1.87-.44c.13,1.17.54,2.05,1.22,2.64s1.62.88,2.82.88c.62,0,1.2-.1,1.73-.3s.95-.48,1.25-.84.46-.77.46-1.22c0-.6-.15-1.07-.44-1.4s-.73-.6-1.31-.81c-.48-.17-1.18-.36-2.1-.58-.55-.12-.93-.22-1.15-.28-1-.27-1.77-.59-2.33-.97s-.94-.81-1.16-1.28-.33-1.05-.33-1.7c0-.72.21-1.36.64-1.94s1.02-1.03,1.77-1.36,1.59-.49,2.52-.49c.98,0,1.85.16,2.61.49s1.36.8,1.82,1.42.74,1.36.85,2.22l-1.83.41h-.04Z"/>
        <path class="cls-2" d="M466.14,25.6h-2.21v-2.2h2.21v2.2Z"/>
        <path class="cls-2" d="M476.15,16.52c.32-.46.76-.83,1.31-1.1s1.14-.41,1.74-.41c1.2,0,2.1.31,2.71.93s.92,1.5.92,2.66v7.01h-1.76v-6.78c0-.75-.19-1.33-.57-1.72s-.91-.59-1.6-.59c-.83,0-1.49.25-2,.76s-.76,1.36-.76,2.55v5.77h-1.76v-14.32h1.76v5.23Z"/>
        <path class="cls-2" d="M493.85,25.6h-1.84c-.1-.22-.18-.4-.21-.54s-.09-.38-.15-.74c-.5.53-1.03.92-1.59,1.16s-1.2.36-1.92.36c-.65,0-1.23-.12-1.72-.38s-.88-.6-1.15-1.05-.41-.97-.41-1.56c0-.89.29-1.6.87-2.13s1.53-.89,2.86-1.09c1.38-.21,2.36-.41,2.95-.6v-.27c0-.58-.08-1.04-.22-1.37s-.39-.58-.72-.73-.77-.22-1.33-.22c-.7,0-1.26.16-1.67.48s-.68.82-.81,1.5l-1.72-.26c.21-1.05.68-1.84,1.4-2.36s1.69-.79,2.89-.79c.92,0,1.66.12,2.24.35s1,.61,1.28,1.13.42,1.23.42,2.11v3.72c0,.64.01,1.14.04,1.49s.08.65.16.91.19.55.36.88ZM488.67,21.11c-.7.12-1.21.33-1.53.62s-.48.66-.48,1.13c0,.5.16.89.48,1.18s.79.42,1.39.42c.51,0,1.04-.16,1.59-.49.38-.23.68-.47.87-.74s.34-.58.42-.96.12-.87.12-1.47v-.37c-.16.07-.51.17-1.06.3s-1.15.26-1.81.38Z"/>
        <path class="cls-2" d="M500.31,16.45c-1.02,0-1.81.34-2.36,1.04s-.83,1.66-.83,2.92c0,.78.12,1.47.37,2.08s.61,1.07,1.07,1.41,1.02.51,1.65.51c.75,0,1.36-.23,1.85-.69s.78-1.1.9-1.9l1.74.26c-.11.77-.38,1.44-.8,2.01s-.96,1.01-1.61,1.31-1.36.46-2.14.46c-.96,0-1.8-.22-2.53-.66s-1.29-1.07-1.69-1.88-.6-1.77-.6-2.87c0-1.16.2-2.15.6-2.96s.97-1.43,1.7-1.85,1.6-.62,2.61-.62c.74,0,1.41.13,2.01.39s1.11.63,1.5,1.12.65,1.08.78,1.76l-1.7.25c-.16-.66-.47-1.17-.91-1.53s-.98-.55-1.6-.55Z"/>
        <path class="cls-2" d="M510.76,24.4c.66,0,1.24-.2,1.72-.59s.82-.91,1.01-1.55l1.72.26c-.29,1.05-.84,1.86-1.65,2.45s-1.77.87-2.9.87c-.99,0-1.85-.22-2.58-.65s-1.3-1.06-1.69-1.86-.6-1.75-.6-2.83.2-2.08.59-2.91.95-1.46,1.68-1.91,1.59-.67,2.58-.67,1.79.21,2.5.64,1.26,1.05,1.64,1.88.58,1.82.58,2.98v.36h-7.75c.04.74.19,1.38.46,1.91s.63.93,1.09,1.21.99.42,1.6.42ZM510.63,16.44c-.52,0-.99.12-1.41.37s-.76.6-1.03,1.04-.44.97-.52,1.56h5.84c-.1-.96-.41-1.69-.9-2.21s-1.16-.77-1.98-.77Z"/>
        <path class="cls-2" d="M524.71,24.42h-.05v5.15h-1.76v-14.33h1.64v1.32h.04c.36-.5.8-.89,1.31-1.15s1.11-.4,1.77-.4c.93,0,1.75.22,2.44.66s1.23,1.07,1.61,1.89.57,1.77.57,2.87-.19,2.03-.56,2.85-.9,1.45-1.57,1.9-1.46.67-2.35.67c-1.3,0-2.33-.48-3.1-1.43ZM527.51,16.44c-.6,0-1.12.17-1.57.5s-.79.79-1.04,1.37-.36,1.23-.36,1.96c0,.86.12,1.6.38,2.22s.61,1.09,1.06,1.42,1,.49,1.62.49,1.12-.17,1.56-.51.76-.81.99-1.41.34-1.29.34-2.07c0-.83-.12-1.54-.37-2.14s-.59-1.05-1.04-1.37-.96-.47-1.56-.47Z"/>
        <path class="cls-2" d="M542.68,25.6h-1.84c-.1-.22-.18-.4-.21-.54s-.09-.38-.15-.74c-.5.53-1.03.92-1.59,1.16s-1.2.36-1.92.36c-.65,0-1.23-.12-1.72-.38s-.88-.6-1.15-1.05-.41-.97-.41-1.56c0-.89.29-1.6.87-2.13s1.53-.89,2.86-1.09c1.38-.21,2.36-.41,2.95-.6v-.27c0-.58-.08-1.04-.22-1.37s-.39-.58-.72-.73-.77-.22-1.33-.22c-.7,0-1.26.16-1.67.48s-.68.82-.81,1.5l-1.72-.26c.21-1.05.68-1.84,1.4-2.36s1.69-.79,2.89-.79c.92,0,1.66.12,2.24.35s1,.61,1.28,1.13.42,1.23.42,2.11v3.72c0,.64.01,1.14.04,1.49s.08.65.16.91.19.55.36.88ZM537.49,21.11c-.7.12-1.21.33-1.53.62s-.48.66-.48,1.13c0,.5.16.89.48,1.18s.79.42,1.39.42c.51,0,1.04-.16,1.59-.49.38-.23.68-.47.87-.74s.34-.58.42-.96.12-.87.12-1.47v-.37c-.16.07-.51.17-1.06.3s-1.15.26-1.81.38Z"/>
        <path class="cls-2" d="M548.86,16.8c-.75,0-1.32.29-1.71.86s-.59,1.38-.59,2.41v5.53h-1.76v-10.36h1.64v1.56c.38-.65.77-1.11,1.17-1.39s.88-.41,1.44-.41c.31,0,.6.04.87.11s.54.2.83.37l-.61,1.62c-.38-.2-.8-.3-1.28-.3Z"/>
        <path class="cls-2" d="M554.72,15.24h1.96v1.36h-1.96v6.28c0,.38.03.67.1.86s.17.31.31.38.33.09.57.09.56-.04.99-.13l.23,1.46c-.5.12-1.01.18-1.51.18-.63,0-1.12-.09-1.46-.28s-.59-.46-.76-.83c-.15-.35-.22-.99-.22-1.9v-6.11h-1.48v-1.36h1.48v-2.38l1.76-1.26v3.64Z"/>
        <path class="cls-2" d="M562.68,24.4c.66,0,1.24-.2,1.72-.59s.82-.91,1.01-1.55l1.72.26c-.29,1.05-.84,1.86-1.65,2.45s-1.77.87-2.9.87c-.99,0-1.85-.22-2.58-.65s-1.3-1.06-1.69-1.86-.6-1.75-.6-2.83.2-2.08.59-2.91.95-1.46,1.68-1.91,1.59-.67,2.58-.67,1.79.21,2.5.64,1.26,1.05,1.64,1.88.58,1.82.58,2.98v.36h-7.75c.04.74.19,1.38.46,1.91s.63.93,1.09,1.21.99.42,1.6.42ZM562.55,16.44c-.52,0-.99.12-1.41.37s-.76.6-1.03,1.04-.44.97-.52,1.56h5.84c-.1-.96-.41-1.69-.9-2.21s-1.16-.77-1.98-.77Z"/>
        <path class="cls-2" d="M583.55,25.6h-1.64v-1.32h-.04c-.31.48-.75.85-1.31,1.14s-1.15.42-1.76.42c-.9,0-1.7-.23-2.4-.68s-1.25-1.09-1.64-1.91-.59-1.76-.59-2.83.18-2.07.55-2.88.88-1.44,1.56-1.88,1.46-.66,2.37-.66c.67,0,1.26.12,1.76.35s.95.59,1.35,1.06h.04v-5.14h1.76v14.32ZM578.81,16.44c-.59,0-1.1.16-1.53.49s-.75.79-.98,1.39-.34,1.31-.34,2.11.12,1.57.38,2.16.6,1.04,1.04,1.35.95.45,1.53.45c.62,0,1.16-.16,1.61-.47s.79-.76,1.03-1.33.35-1.25.35-2.03c0-.86-.13-1.6-.38-2.22s-.61-1.09-1.08-1.42-1.01-.49-1.64-.49Z"/>
        <path class="cls-2" d="M590.57,24.4c.66,0,1.24-.2,1.72-.59s.82-.91,1.01-1.55l1.72.26c-.29,1.05-.84,1.86-1.65,2.45s-1.77.87-2.9.87c-.99,0-1.85-.22-2.58-.65s-1.3-1.06-1.69-1.86-.6-1.75-.6-2.83.2-2.08.59-2.91.95-1.46,1.68-1.91,1.59-.67,2.58-.67,1.79.21,2.5.64,1.26,1.05,1.64,1.88.58,1.82.58,2.98v.36h-7.75c.04.74.19,1.38.46,1.91s.63.93,1.09,1.21.99.42,1.6.42ZM590.44,16.44c-.52,0-.99.12-1.41.37s-.76.6-1.03,1.04-.44.97-.52,1.56h5.84c-.1-.96-.41-1.69-.9-2.21s-1.16-.77-1.98-.77Z"/>
        <path class="cls-2" d="M604.48,25.6h-1.76v-14.32h1.76v14.32Z"/>
        <path class="cls-2" d="M615.53,25.6h-1.84c-.1-.22-.18-.4-.21-.54s-.09-.38-.15-.74c-.5.53-1.03.92-1.59,1.16s-1.2.36-1.92.36c-.65,0-1.23-.12-1.72-.38s-.88-.6-1.15-1.05-.41-.97-.41-1.56c0-.89.29-1.6.87-2.13s1.53-.89,2.86-1.09c1.38-.21,2.36-.41,2.95-.6v-.27c0-.58-.08-1.04-.22-1.37s-.39-.58-.72-.73-.77-.22-1.33-.22c-.7,0-1.26.16-1.67.48s-.68.82-.81,1.5l-1.72-.26c.21-1.05.68-1.84,1.4-2.36s1.69-.79,2.89-.79c.92,0,1.66.12,2.24.35s1,.61,1.28,1.13.42,1.23.42,2.11v3.72c0,.64.01,1.14.04,1.49s.08.65.16.91.19.55.36.88ZM610.35,21.11c-.7.12-1.21.33-1.53.62s-.48.66-.48,1.13c0,.5.16.89.48,1.18s.79.42,1.39.42c.51,0,1.04-.16,1.59-.49.38-.23.68-.47.87-.74s.34-.58.42-.96.12-.87.12-1.47v-.37c-.16.07-.51.17-1.06.3s-1.15.26-1.81.38Z"/>
        <path class="cls-2" d="M296.03,49.6h-2.11l-1.68-4.36h-5.97l-1.6,4.36h-1.98l5.48-14.32h2.04l5.82,14.32ZM288.29,39.7l-1.48,4.04h4.85l-1.56-4.06c-.16-.43-.31-.86-.45-1.3s-.29-.97-.46-1.6h-.04c-.19.89-.48,1.87-.86,2.92Z"/>
        <path class="cls-2" d="M300.56,40.44c-.61,0-1.09.12-1.44.37s-.53.57-.53.97c0,.31.08.56.22.75s.39.36.72.48.79.24,1.39.34c.9.15,1.63.35,2.2.6s1,.58,1.3,1,.44.96.44,1.61-.16,1.18-.49,1.69-.79.9-1.4,1.18-1.3.42-2.08.42c-2.47,0-3.89-1.11-4.27-3.32l1.75-.28c.12.73.38,1.27.79,1.63s.98.53,1.71.53,1.25-.15,1.63-.45.57-.7.57-1.19-.22-.84-.65-1.1-1.04-.45-1.81-.57c-1.22-.19-2.15-.52-2.78-1s-.94-1.18-.94-2.09c0-.57.15-1.09.45-1.54s.73-.81,1.28-1.06,1.2-.39,1.93-.39c1.13,0,2.03.24,2.7.72s1.08,1.2,1.25,2.15l-1.72.26c-.08-.53-.32-.94-.71-1.25s-.89-.45-1.52-.45Z"/>
        <path class="cls-2" d="M306.25,44.43c0-1.13.2-2.1.61-2.91s.97-1.44,1.7-1.87,1.58-.64,2.54-.64,1.82.21,2.55.62,1.3,1.03,1.7,1.84.61,1.79.61,2.93-.21,2.12-.62,2.93-.98,1.44-1.71,1.87-1.58.64-2.53.64-1.79-.21-2.52-.62-1.3-1.03-1.71-1.84-.62-1.8-.62-2.96ZM311.1,40.45c-.59,0-1.11.15-1.57.45s-.82.75-1.08,1.35-.4,1.32-.4,2.17.13,1.58.39,2.17.62,1.04,1.08,1.35.99.45,1.59.45,1.16-.16,1.62-.47.82-.77,1.07-1.37.38-1.32.38-2.16-.13-1.57-.39-2.16-.62-1.04-1.08-1.34-1-.45-1.6-.45Z"/>
        <path class="cls-2" d="M322.37,40.45c-1.02,0-1.81.34-2.36,1.04s-.83,1.66-.83,2.92c0,.78.12,1.47.37,2.08s.61,1.07,1.07,1.41,1.02.51,1.65.51c.75,0,1.36-.23,1.85-.69s.78-1.1.9-1.9l1.74.26c-.11.77-.38,1.44-.8,2.01s-.96,1.01-1.61,1.31-1.36.46-2.14.46c-.96,0-1.8-.22-2.53-.66s-1.29-1.07-1.69-1.88-.6-1.77-.6-2.87c0-1.16.2-2.15.6-2.96s.97-1.43,1.7-1.85,1.6-.62,2.61-.62c.74,0,1.41.13,2.01.39s1.11.63,1.5,1.12.65,1.08.78,1.76l-1.7.25c-.16-.66-.47-1.17-.91-1.53s-.98-.55-1.6-.55Z"/>
        <path class="cls-2" d="M330.27,37.28h-1.76v-1.99h1.76v1.99ZM330.27,49.6h-1.76v-10.36h1.76v10.36Z"/>
        <path class="cls-2" d="M341.32,49.6h-1.84c-.1-.22-.18-.4-.21-.54s-.09-.38-.15-.74c-.5.53-1.03.92-1.59,1.16s-1.2.36-1.92.36c-.65,0-1.23-.12-1.72-.38s-.88-.6-1.15-1.05-.41-.97-.41-1.56c0-.89.29-1.6.87-2.13s1.53-.89,2.86-1.09c1.38-.21,2.36-.41,2.95-.6v-.27c0-.58-.08-1.04-.22-1.37s-.39-.58-.72-.73-.77-.22-1.33-.22c-.7,0-1.26.16-1.67.48s-.68.82-.81,1.5l-1.72-.26c.21-1.05.68-1.84,1.4-2.36s1.69-.79,2.89-.79c.92,0,1.66.12,2.24.35s1,.61,1.28,1.13.42,1.23.42,2.11v3.72c0,.64.01,1.14.04,1.49s.08.65.16.91.19.55.36.88ZM336.14,45.11c-.7.12-1.21.33-1.53.62s-.48.66-.48,1.13c0,.5.16.89.48,1.18s.79.42,1.39.42c.51,0,1.04-.16,1.59-.49.38-.23.68-.47.87-.74s.34-.58.42-.96.12-.87.12-1.47v-.37c-.16.07-.51.17-1.06.3s-1.15.26-1.81.38Z"/>
        <path class="cls-2" d="M347.78,40.45c-1.02,0-1.81.34-2.36,1.04s-.83,1.66-.83,2.92c0,.78.12,1.47.37,2.08s.61,1.07,1.07,1.41,1.02.51,1.65.51c.75,0,1.36-.23,1.85-.69s.78-1.1.9-1.9l1.74.26c-.11.77-.38,1.44-.8,2.01s-.96,1.01-1.61,1.31-1.36.46-2.14.46c-.96,0-1.8-.22-2.53-.66s-1.29-1.07-1.69-1.88-.6-1.77-.6-2.87c0-1.16.2-2.15.6-2.96s.97-1.43,1.7-1.85,1.6-.62,2.61-.62c.74,0,1.41.13,2.01.39s1.11.63,1.5,1.12.65,1.08.78,1.76l-1.7.25c-.16-.66-.47-1.17-.91-1.53s-.98-.55-1.6-.55Z"/>
        <path class="cls-2" d="M355.68,37.28h-1.76v-1.99h1.76v1.99ZM355.68,49.6h-1.76v-10.36h1.76v10.36Z"/>
        <path class="cls-2" d="M357.74,44.43c0-1.13.2-2.1.61-2.91s.97-1.44,1.7-1.87,1.58-.64,2.54-.64,1.82.21,2.55.62,1.3,1.03,1.7,1.84.61,1.79.61,2.93-.21,2.12-.62,2.93-.98,1.44-1.71,1.87-1.58.64-2.53.64-1.79-.21-2.52-.62-1.3-1.03-1.71-1.84-.62-1.8-.62-2.96ZM362.58,40.45c-.59,0-1.11.15-1.57.45s-.82.75-1.08,1.35-.4,1.32-.4,2.17.13,1.58.39,2.17.62,1.04,1.08,1.35.99.45,1.59.45,1.16-.16,1.62-.47.82-.77,1.07-1.37.38-1.32.38-2.16-.13-1.57-.39-2.16-.62-1.04-1.08-1.34-1-.45-1.6-.45ZM363.18,37.79h-1.45l1.3-2.74h2.3l-2.16,2.74Z"/>
        <path class="cls-2" d="M376.2,49.6v-6.78c0-.75-.19-1.33-.57-1.72s-.91-.59-1.6-.59c-.87,0-1.55.26-2.04.79s-.73,1.37-.73,2.52v5.77h-1.76v-10.36h1.64v1.45c.34-.52.79-.93,1.34-1.23s1.16-.45,1.83-.45c1.2,0,2.1.31,2.71.93s.92,1.5.92,2.66v7.01h-1.76Z"/>
        <path class="cls-2" d="M394.86,49.6h-1.64v-1.32h-.04c-.31.48-.75.85-1.31,1.14s-1.15.42-1.76.42c-.9,0-1.7-.23-2.4-.68s-1.25-1.09-1.64-1.91-.59-1.76-.59-2.83.18-2.07.55-2.88.88-1.44,1.56-1.88,1.46-.66,2.37-.66c.67,0,1.26.12,1.76.35s.95.59,1.35,1.06h.04v-5.14h1.76v14.32ZM390.12,40.44c-.59,0-1.1.16-1.53.49s-.75.79-.98,1.39-.34,1.31-.34,2.11.12,1.57.38,2.16.6,1.04,1.04,1.35.95.45,1.53.45c.62,0,1.16-.16,1.61-.47s.79-.76,1.03-1.33.35-1.25.35-2.03c0-.86-.13-1.6-.38-2.22s-.61-1.09-1.08-1.42-1.01-.49-1.64-.49Z"/>
        <path class="cls-2" d="M401.88,48.4c.66,0,1.24-.2,1.72-.59s.82-.91,1.01-1.55l1.72.26c-.29,1.05-.84,1.86-1.65,2.45s-1.77.87-2.9.87c-.99,0-1.85-.22-2.58-.65s-1.3-1.06-1.69-1.86-.6-1.75-.6-2.83.2-2.08.59-2.91.95-1.46,1.68-1.91,1.59-.67,2.58-.67,1.79.21,2.5.64,1.26,1.05,1.64,1.88.58,1.82.58,2.98v.36h-7.75c.04.74.19,1.38.46,1.91s.63.93,1.09,1.21.99.42,1.6.42ZM401.75,40.44c-.52,0-.99.12-1.41.37s-.76.6-1.03,1.04-.44.97-.52,1.56h5.84c-.1-.96-.41-1.69-.9-2.21s-1.16-.77-1.98-.77Z"/>
        <path class="cls-2" d="M418.33,48.4c.66,0,1.24-.2,1.72-.59s.82-.91,1.01-1.55l1.72.26c-.29,1.05-.84,1.86-1.65,2.45s-1.77.87-2.9.87c-.99,0-1.85-.22-2.58-.65s-1.3-1.06-1.69-1.86-.6-1.75-.6-2.83.2-2.08.59-2.91.95-1.46,1.68-1.91,1.59-.67,2.58-.67,1.79.21,2.5.64,1.26,1.05,1.64,1.88.58,1.82.58,2.98v.36h-7.75c.04.74.19,1.38.46,1.91s.63.93,1.09,1.21.99.42,1.6.42ZM418.21,40.44c-.52,0-.99.12-1.41.37s-.76.6-1.03,1.04-.44.97-.52,1.56h5.84c-.1-.96-.41-1.69-.9-2.21s-1.16-.77-1.98-.77Z"/>
        <path class="cls-2" d="M435.69,39.01c1.11,0,1.95.29,2.52.87s.86,1.43.86,2.54v7.19h-1.76v-6.65c0-.88-.16-1.5-.47-1.88s-.79-.56-1.44-.56c-.47,0-.89.12-1.27.35s-.68.6-.9,1.09-.33,1.11-.33,1.86v5.78h-1.76v-6.81c0-.77-.16-1.35-.48-1.72s-.79-.56-1.43-.56c-.46,0-.87.11-1.25.33s-.68.58-.91,1.07-.34,1.12-.34,1.9v5.78h-1.76v-10.36h1.64v1.45c.73-1.12,1.7-1.68,2.91-1.68.83,0,1.49.15,2,.45s.88.76,1.11,1.36c.43-.68.88-1.15,1.36-1.42s1.04-.4,1.68-.4Z"/>
        <path class="cls-2" d="M443.55,48.42h-.05v5.15h-1.76v-14.33h1.64v1.32h.04c.36-.5.8-.89,1.31-1.15s1.11-.4,1.77-.4c.93,0,1.75.22,2.44.66s1.23,1.07,1.61,1.89.57,1.77.57,2.87-.19,2.03-.56,2.85-.9,1.45-1.57,1.9-1.46.67-2.35.67c-1.3,0-2.33-.48-3.1-1.43ZM446.35,40.44c-.6,0-1.12.17-1.57.5s-.79.79-1.04,1.37-.36,1.23-.36,1.96c0,.86.12,1.6.38,2.22s.61,1.09,1.06,1.42,1,.49,1.62.49,1.12-.17,1.56-.51.76-.81.99-1.41.34-1.29.34-2.07c0-.83-.12-1.54-.37-2.14s-.59-1.05-1.04-1.37-.96-.47-1.56-.47Z"/>
        <path class="cls-2" d="M457.24,40.8c-.75,0-1.32.29-1.71.86s-.59,1.38-.59,2.41v5.53h-1.76v-10.36h1.64v1.56c.38-.65.77-1.11,1.17-1.39s.88-.41,1.44-.41c.31,0,.6.04.87.11s.54.2.83.37l-.61,1.62c-.38-.2-.8-.3-1.28-.3Z"/>
        <path class="cls-2" d="M464.46,48.4c.66,0,1.24-.2,1.72-.59s.82-.91,1.01-1.55l1.72.26c-.29,1.05-.84,1.86-1.65,2.45s-1.77.87-2.9.87c-.99,0-1.85-.22-2.58-.65s-1.3-1.06-1.69-1.86-.6-1.75-.6-2.83.2-2.08.59-2.91.95-1.46,1.68-1.91,1.59-.67,2.58-.67,1.79.21,2.5.64,1.26,1.05,1.64,1.88.58,1.82.58,2.98v.36h-7.75c.04.74.19,1.38.46,1.91s.63.93,1.09,1.21.99.42,1.6.42ZM464.33,40.44c-.52,0-.99.12-1.41.37s-.76.6-1.03,1.04-.44.97-.52,1.56h5.84c-.1-.96-.41-1.69-.9-2.21s-1.16-.77-1.98-.77Z"/>
        <path class="cls-2" d="M474.28,40.44c-.61,0-1.09.12-1.44.37s-.53.57-.53.97c0,.31.08.56.22.75s.39.36.72.48.79.24,1.39.34c.9.15,1.63.35,2.2.6s1,.58,1.3,1,.44.96.44,1.61-.16,1.18-.49,1.69-.79.9-1.4,1.18-1.3.42-2.08.42c-2.47,0-3.89-1.11-4.27-3.32l1.75-.28c.12.73.38,1.27.79,1.63s.98.53,1.71.53,1.25-.15,1.63-.45.57-.7.57-1.19-.22-.84-.65-1.1-1.04-.45-1.81-.57c-1.22-.19-2.15-.52-2.78-1s-.94-1.18-.94-2.09c0-.57.15-1.09.45-1.54s.73-.81,1.28-1.06,1.2-.39,1.93-.39c1.13,0,2.03.24,2.7.72s1.08,1.2,1.25,2.15l-1.72.26c-.08-.53-.32-.94-.71-1.25s-.89-.45-1.52-.45Z"/>
        <path class="cls-2" d="M488.97,49.6h-1.84c-.1-.22-.18-.4-.21-.54s-.09-.38-.15-.74c-.5.53-1.03.92-1.59,1.16s-1.2.36-1.92.36c-.65,0-1.23-.12-1.72-.38s-.88-.6-1.15-1.05-.41-.97-.41-1.56c0-.89.29-1.6.87-2.13s1.53-.89,2.86-1.09c1.38-.21,2.36-.41,2.95-.6v-.27c0-.58-.08-1.04-.22-1.37s-.39-.58-.72-.73-.77-.22-1.33-.22c-.7,0-1.26.16-1.67.48s-.68.82-.81,1.5l-1.72-.26c.21-1.05.68-1.84,1.4-2.36s1.69-.79,2.89-.79c.92,0,1.66.12,2.24.35s1,.61,1.28,1.13.42,1.23.42,2.11v3.72c0,.64.01,1.14.04,1.49s.08.65.16.91.19.55.36.88ZM483.78,45.11c-.7.12-1.21.33-1.53.62s-.48.66-.48,1.13c0,.5.16.89.48,1.18s.79.42,1.39.42c.51,0,1.04-.16,1.59-.49.38-.23.68-.47.87-.74s.34-.58.42-.96.12-.87.12-1.47v-.37c-.16.07-.51.17-1.06.3s-1.15.26-1.81.38Z"/>
        <path class="cls-2" d="M494.12,40.44c-.61,0-1.09.12-1.44.37s-.53.57-.53.97c0,.31.08.56.22.75s.39.36.72.48.79.24,1.39.34c.9.15,1.63.35,2.2.6s1,.58,1.3,1,.44.96.44,1.61-.16,1.18-.49,1.69-.79.9-1.4,1.18-1.3.42-2.08.42c-2.47,0-3.89-1.11-4.27-3.32l1.75-.28c.12.73.38,1.27.79,1.63s.98.53,1.71.53,1.25-.15,1.63-.45.57-.7.57-1.19-.22-.84-.65-1.1-1.04-.45-1.81-.57c-1.22-.19-2.15-.52-2.78-1s-.94-1.18-.94-2.09c0-.57.15-1.09.45-1.54s.73-.81,1.28-1.06,1.2-.39,1.93-.39c1.13,0,2.03.24,2.7.72s1.08,1.2,1.25,2.15l-1.72.26c-.08-.53-.32-.94-.71-1.25s-.89-.45-1.52-.45Z"/>
        <path class="cls-2" d="M514.68,49.6h-1.64v-1.32h-.04c-.31.48-.75.85-1.31,1.14s-1.15.42-1.76.42c-.9,0-1.7-.23-2.4-.68s-1.25-1.09-1.64-1.91-.59-1.76-.59-2.83.18-2.07.55-2.88.88-1.44,1.56-1.88,1.46-.66,2.37-.66c.67,0,1.26.12,1.76.35s.95.59,1.35,1.06h.04v-5.14h1.76v14.32ZM509.95,40.44c-.59,0-1.1.16-1.53.49s-.75.79-.98,1.39-.34,1.31-.34,2.11.12,1.57.38,2.16.6,1.04,1.04,1.35.95.45,1.53.45c.62,0,1.16-.16,1.61-.47s.79-.76,1.03-1.33.35-1.25.35-2.03c0-.86-.13-1.6-.38-2.22s-.61-1.09-1.08-1.42-1.01-.49-1.64-.49Z"/>
        <path class="cls-2" d="M521.7,48.4c.66,0,1.24-.2,1.72-.59s.82-.91,1.01-1.55l1.72.26c-.29,1.05-.84,1.86-1.65,2.45s-1.77.87-2.9.87c-.99,0-1.85-.22-2.58-.65s-1.3-1.06-1.69-1.86-.6-1.75-.6-2.83.2-2.08.59-2.91.95-1.46,1.68-1.91,1.59-.67,2.58-.67,1.79.21,2.5.64,1.26,1.05,1.64,1.88.58,1.82.58,2.98v.36h-7.75c.04.74.19,1.38.46,1.91s.63.93,1.09,1.21.99.42,1.6.42ZM521.58,40.44c-.52,0-.99.12-1.41.37s-.76.6-1.03,1.04-.44.97-.52,1.56h5.84c-.1-.96-.41-1.69-.9-2.21s-1.16-.77-1.98-.77Z"/>
        <path class="cls-2" d="M535.61,37.28h-1.76v-1.99h1.76v1.99ZM535.61,49.6h-1.76v-10.36h1.76v10.36Z"/>
        <path class="cls-2" d="M545.01,49.6v-6.78c0-.75-.19-1.33-.57-1.72s-.91-.59-1.6-.59c-.87,0-1.55.26-2.04.79s-.73,1.37-.73,2.52v5.77h-1.76v-10.36h1.64v1.45c.34-.52.79-.93,1.34-1.23s1.16-.45,1.83-.45c1.2,0,2.1.31,2.71.93s.92,1.5.92,2.66v7.01h-1.76Z"/>
        <path class="cls-2" d="M552.24,45.2c.27.74.51,1.52.73,2.34h.04c.12-.51.33-1.17.63-1.98l2.3-6.32h1.8l-3.92,10.36h-1.64l-3.95-10.36h1.87l2.13,5.96Z"/>
        <path class="cls-2" d="M563.28,48.4c.66,0,1.24-.2,1.72-.59s.82-.91,1.01-1.55l1.72.26c-.29,1.05-.84,1.86-1.65,2.45s-1.77.87-2.9.87c-.99,0-1.85-.22-2.58-.65s-1.3-1.06-1.69-1.86-.6-1.75-.6-2.83.2-2.08.59-2.91.95-1.46,1.68-1.91,1.59-.67,2.58-.67,1.79.21,2.5.64,1.26,1.05,1.64,1.88.58,1.82.58,2.98v.36h-7.75c.04.74.19,1.38.46,1.91s.63.93,1.09,1.21.99.42,1.6.42ZM563.16,40.44c-.52,0-.99.12-1.41.37s-.76.6-1.03,1.04-.44.97-.52,1.56h5.84c-.1-.96-.41-1.69-.9-2.21s-1.16-.77-1.98-.77Z"/>
        <path class="cls-2" d="M573.11,40.44c-.61,0-1.09.12-1.44.37s-.53.57-.53.97c0,.31.08.56.22.75s.39.36.72.48.79.24,1.39.34c.9.15,1.63.35,2.2.6s1,.58,1.3,1,.44.96.44,1.61-.16,1.18-.49,1.69-.79.9-1.4,1.18-1.3.42-2.08.42c-2.47,0-3.89-1.11-4.27-3.32l1.75-.28c.12.73.38,1.27.79,1.63s.98.53,1.71.53,1.25-.15,1.63-.45.57-.7.57-1.19-.22-.84-.65-1.1-1.04-.45-1.81-.57c-1.22-.19-2.15-.52-2.78-1s-.94-1.18-.94-2.09c0-.57.15-1.09.45-1.54s.73-.81,1.28-1.06,1.2-.39,1.93-.39c1.13,0,2.03.24,2.7.72s1.08,1.2,1.25,2.15l-1.72.26c-.08-.53-.32-.94-.71-1.25s-.89-.45-1.52-.45Z"/>
        <path class="cls-2" d="M581.48,39.24h1.96v1.36h-1.96v6.28c0,.38.03.67.1.86s.17.31.31.38.33.09.57.09.56-.04.99-.13l.23,1.46c-.5.12-1.01.18-1.51.18-.63,0-1.12-.09-1.46-.28s-.59-.46-.76-.83c-.15-.35-.22-.99-.22-1.9v-6.11h-1.48v-1.36h1.48v-2.38l1.76-1.26v3.64Z"/>
        <path class="cls-2" d="M587.03,37.28h-1.76v-1.99h1.76v1.99ZM587.03,49.6h-1.76v-10.36h1.76v10.36Z"/>
        <path class="cls-2" d="M596.71,39.24h1.64v9.48c0,1.69-.38,2.96-1.13,3.81s-1.93,1.27-3.54,1.27c-1.27,0-2.25-.29-2.95-.86s-1.09-1.4-1.16-2.48l1.7.26c.08.56.32.97.72,1.24s.95.4,1.67.4c1,0,1.74-.25,2.22-.76.48-.51.72-1.56.72-3.13v-.22c-.75.91-1.75,1.36-2.97,1.36-.9,0-1.69-.22-2.38-.67s-1.22-1.07-1.59-1.86-.56-1.71-.56-2.73.17-1.98.52-2.79.85-1.43,1.51-1.88,1.46-.67,2.39-.67c.72,0,1.33.12,1.83.37s.94.62,1.33,1.1h.04v-1.24ZM593.65,40.44c-.54,0-1.02.15-1.44.44s-.74.73-.97,1.3-.35,1.26-.35,2.05.12,1.52.35,2.1.56,1.04,1,1.35.95.47,1.55.47,1.14-.16,1.58-.47.77-.76,1-1.34.34-1.27.34-2.08-.12-1.46-.37-2.04-.6-1.02-1.06-1.33-1.01-.46-1.64-.46Z"/>
        <path class="cls-2" d="M609.41,49.6h-1.84c-.1-.22-.18-.4-.21-.54s-.09-.38-.15-.74c-.5.53-1.03.92-1.59,1.16s-1.2.36-1.92.36c-.65,0-1.23-.12-1.72-.38s-.88-.6-1.15-1.05-.41-.97-.41-1.56c0-.89.29-1.6.87-2.13s1.53-.89,2.86-1.09c1.38-.21,2.36-.41,2.95-.6v-.27c0-.58-.08-1.04-.22-1.37s-.39-.58-.72-.73-.77-.22-1.33-.22c-.7,0-1.26.16-1.67.48s-.68.82-.81,1.5l-1.72-.26c.21-1.05.68-1.84,1.4-2.36s1.69-.79,2.89-.79c.92,0,1.66.12,2.24.35s1,.61,1.28,1.13.42,1.23.42,2.11v3.72c0,.64.01,1.14.04,1.49s.08.65.16.91.19.55.36.88ZM604.22,45.11c-.7.12-1.21.33-1.53.62s-.48.66-.48,1.13c0,.5.16.89.48,1.18s.79.42,1.39.42c.51,0,1.04-.16,1.59-.49.38-.23.68-.47.87-.74s.34-.58.42-.96.12-.87.12-1.47v-.37c-.16.07-.51.17-1.06.3s-1.15.26-1.81.38Z"/>
        <path class="cls-2" d="M615.86,40.45c-1.02,0-1.81.34-2.36,1.04s-.83,1.66-.83,2.92c0,.78.12,1.47.37,2.08s.61,1.07,1.07,1.41,1.02.51,1.65.51c.75,0,1.36-.23,1.85-.69s.78-1.1.9-1.9l1.74.26c-.11.77-.38,1.44-.8,2.01s-.96,1.01-1.61,1.31-1.36.46-2.14.46c-.96,0-1.8-.22-2.53-.66s-1.29-1.07-1.69-1.88-.6-1.77-.6-2.87c0-1.16.2-2.15.6-2.96s.97-1.43,1.7-1.85,1.6-.62,2.61-.62c.74,0,1.41.13,2.01.39s1.11.63,1.5,1.12.65,1.08.78,1.76l-1.7.25c-.16-.66-.47-1.17-.91-1.53s-.98-.55-1.6-.55Z"/>
        <path class="cls-2" d="M623.76,37.28h-1.76v-1.99h1.76v1.99ZM623.76,49.6h-1.76v-10.36h1.76v10.36Z"/>
        <path class="cls-2" d="M625.82,44.43c0-1.13.2-2.1.61-2.91s.97-1.44,1.7-1.87,1.58-.64,2.54-.64,1.82.21,2.55.62,1.3,1.03,1.7,1.84.61,1.79.61,2.93-.21,2.12-.62,2.93-.98,1.44-1.71,1.87-1.58.64-2.53.64-1.79-.21-2.52-.62-1.3-1.03-1.71-1.84-.62-1.8-.62-2.96ZM630.67,40.45c-.59,0-1.11.15-1.57.45s-.82.75-1.08,1.35-.4,1.32-.4,2.17.13,1.58.39,2.17.62,1.04,1.08,1.35.99.45,1.59.45,1.16-.16,1.62-.47.82-.77,1.07-1.37.38-1.32.38-2.16-.13-1.57-.39-2.16-.62-1.04-1.08-1.34-1-.45-1.6-.45ZM631.26,37.79h-1.45l1.3-2.74h2.3l-2.16,2.74Z"/>
        <path class="cls-2" d="M644.29,49.6v-6.78c0-.75-.19-1.33-.57-1.72s-.91-.59-1.6-.59c-.87,0-1.55.26-2.04.79s-.73,1.37-.73,2.52v5.77h-1.76v-10.36h1.64v1.45c.34-.52.79-.93,1.34-1.23s1.16-.45,1.83-.45c1.2,0,2.1.31,2.71.93s.92,1.5.92,2.66v7.01h-1.76Z"/>
        <path class="cls-2" d="M662.94,49.6h-1.64v-1.32h-.04c-.31.48-.75.85-1.31,1.14s-1.15.42-1.76.42c-.9,0-1.7-.23-2.4-.68s-1.25-1.09-1.64-1.91-.59-1.76-.59-2.83.18-2.07.55-2.88.88-1.44,1.56-1.88,1.46-.66,2.37-.66c.67,0,1.26.12,1.76.35s.95.59,1.35,1.06h.04v-5.14h1.76v14.32ZM658.21,40.44c-.59,0-1.1.16-1.53.49s-.75.79-.98,1.39-.34,1.31-.34,2.11.12,1.57.38,2.16.6,1.04,1.04,1.35.95.45,1.53.45c.62,0,1.16-.16,1.61-.47s.79-.76,1.03-1.33.35-1.25.35-2.03c0-.86-.13-1.6-.38-2.22s-.61-1.09-1.08-1.42-1.01-.49-1.64-.49Z"/>
        <path class="cls-2" d="M669.96,48.4c.66,0,1.24-.2,1.72-.59s.82-.91,1.01-1.55l1.72.26c-.29,1.05-.84,1.86-1.65,2.45s-1.77.87-2.9.87c-.99,0-1.85-.22-2.58-.65s-1.3-1.06-1.69-1.86-.6-1.75-.6-2.83.2-2.08.59-2.91.95-1.46,1.68-1.91,1.59-.67,2.58-.67,1.79.21,2.5.64,1.26,1.05,1.64,1.88.58,1.82.58,2.98v.36h-7.75c.04.74.19,1.38.46,1.91s.63.93,1.09,1.21.99.42,1.6.42ZM669.84,40.44c-.52,0-.99.12-1.41.37s-.76.6-1.03,1.04-.44.97-.52,1.56h5.84c-.1-.96-.41-1.69-.9-2.21s-1.16-.77-1.98-.77Z"/>
        <path class="cls-2" d="M294.75,63.01c1.11,0,1.95.29,2.52.87s.86,1.43.86,2.54v7.19h-1.76v-6.65c0-.88-.16-1.5-.47-1.88s-.79-.56-1.44-.56c-.47,0-.89.12-1.27.35s-.68.6-.9,1.09-.33,1.11-.33,1.86v5.78h-1.76v-6.81c0-.77-.16-1.35-.48-1.72s-.79-.56-1.43-.56c-.46,0-.87.11-1.25.33s-.68.58-.91,1.07-.34,1.12-.34,1.9v5.78h-1.76v-10.36h1.64v1.45c.73-1.12,1.7-1.68,2.91-1.68.83,0,1.49.15,2,.45s.88.76,1.11,1.36c.43-.68.88-1.15,1.36-1.42s1.04-.4,1.68-.4Z"/>
        <path class="cls-2" d="M305.11,72.4c.66,0,1.24-.2,1.72-.59s.82-.91,1.01-1.55l1.72.26c-.29,1.05-.84,1.86-1.65,2.45s-1.77.87-2.9.87c-.99,0-1.85-.22-2.58-.65s-1.3-1.06-1.69-1.86-.6-1.75-.6-2.83.2-2.08.59-2.91.95-1.46,1.68-1.91,1.59-.67,2.58-.67,1.79.21,2.5.64,1.26,1.05,1.64,1.88.58,1.82.58,2.98v.36h-7.75c.04.74.19,1.38.46,1.91s.63.93,1.09,1.21.99.42,1.6.42ZM304.98,64.44c-.52,0-.99.12-1.41.37s-.76.6-1.03,1.04-.44.97-.52,1.56h5.84c-.1-.96-.41-1.69-.9-2.21s-1.16-.77-1.98-.77Z"/>
        <path class="cls-2" d="M315.82,64.8c-.75,0-1.32.29-1.71.86s-.59,1.38-.59,2.41v5.53h-1.76v-10.36h1.64v1.56c.38-.65.77-1.11,1.17-1.39s.88-.41,1.44-.41c.31,0,.6.04.87.11s.54.2.83.37l-.61,1.62c-.38-.2-.8-.3-1.28-.3Z"/>
        <path class="cls-2" d="M323.12,64.45c-1.02,0-1.81.34-2.36,1.04s-.83,1.66-.83,2.92c0,.78.12,1.47.37,2.08s.61,1.07,1.07,1.41,1.02.51,1.65.51c.75,0,1.36-.23,1.85-.69s.78-1.1.9-1.9l1.74.26c-.11.77-.38,1.44-.8,2.01s-.96,1.01-1.61,1.31-1.36.46-2.14.46c-.96,0-1.8-.22-2.53-.66s-1.29-1.07-1.69-1.88-.6-1.77-.6-2.87c0-1.16.2-2.15.6-2.96s.97-1.43,1.7-1.85,1.6-.62,2.61-.62c.74,0,1.41.13,2.01.39s1.11.63,1.5,1.12.65,1.08.78,1.76l-1.7.25c-.16-.66-.47-1.17-.91-1.53s-.98-.55-1.6-.55Z"/>
        <path class="cls-2" d="M337.75,73.6h-1.84c-.1-.22-.18-.4-.21-.54s-.09-.38-.15-.74c-.5.53-1.03.92-1.59,1.16s-1.2.36-1.92.36c-.65,0-1.23-.12-1.72-.38s-.88-.6-1.15-1.05-.41-.97-.41-1.56c0-.89.29-1.6.87-2.13s1.53-.89,2.86-1.09c1.38-.21,2.36-.41,2.95-.6v-.27c0-.58-.08-1.04-.22-1.37s-.39-.58-.72-.73-.77-.22-1.33-.22c-.7,0-1.26.16-1.67.48s-.68.82-.81,1.5l-1.72-.26c.21-1.05.68-1.84,1.4-2.36s1.69-.79,2.89-.79c.92,0,1.66.12,2.24.35s1,.61,1.28,1.13.42,1.23.42,2.11v3.72c0,.64.01,1.14.04,1.49s.08.65.16.91.19.55.36.88ZM332.56,69.11c-.7.12-1.21.33-1.53.62s-.48.66-.48,1.13c0,.5.16.89.48,1.18s.79.42,1.39.42c.51,0,1.04-.16,1.59-.49.38-.23.68-.47.87-.74s.34-.58.42-.96.12-.87.12-1.47v-.37c-.16.07-.51.17-1.06.3s-1.15.26-1.81.38Z"/>
        <path class="cls-2" d="M348.59,73.6h-1.64v-1.32h-.04c-.31.48-.75.85-1.31,1.14s-1.15.42-1.76.42c-.9,0-1.7-.23-2.4-.68s-1.25-1.09-1.64-1.91-.59-1.76-.59-2.83.18-2.07.55-2.88.88-1.44,1.56-1.88,1.46-.66,2.37-.66c.67,0,1.26.12,1.76.35s.95.59,1.35,1.06h.04v-5.14h1.76v14.32ZM343.85,64.44c-.59,0-1.1.16-1.53.49s-.75.79-.98,1.39-.34,1.31-.34,2.11.12,1.57.38,2.16.6,1.04,1.04,1.35.95.45,1.53.45c.62,0,1.16-.16,1.61-.47s.79-.76,1.03-1.33.35-1.25.35-2.03c0-.86-.13-1.6-.38-2.22s-.61-1.09-1.08-1.42-1.01-.49-1.64-.49Z"/>
        <path class="cls-2" d="M350.65,68.43c0-1.13.2-2.1.61-2.91s.97-1.44,1.7-1.87,1.58-.64,2.54-.64,1.82.21,2.55.62,1.3,1.03,1.7,1.84.61,1.79.61,2.93-.21,2.12-.62,2.93-.98,1.44-1.71,1.87-1.58.64-2.53.64-1.79-.21-2.52-.62-1.3-1.03-1.71-1.84-.62-1.8-.62-2.96ZM355.49,64.45c-.59,0-1.11.15-1.57.45s-.82.75-1.08,1.35-.4,1.32-.4,2.17.13,1.58.39,2.17.62,1.04,1.08,1.35.99.45,1.59.45,1.16-.16,1.62-.47.82-.77,1.07-1.37.38-1.32.38-2.16-.13-1.57-.39-2.16-.62-1.04-1.08-1.34-1-.45-1.6-.45Z"/>
        <path class="cls-2" d="M365.6,64.44c-.61,0-1.09.12-1.44.37s-.53.57-.53.97c0,.31.08.56.22.75s.39.36.72.48.79.24,1.39.34c.9.15,1.63.35,2.2.6s1,.58,1.3,1,.44.96.44,1.61-.16,1.18-.49,1.69-.79.9-1.4,1.18-1.3.42-2.08.42c-2.47,0-3.89-1.11-4.27-3.32l1.75-.28c.12.73.38,1.27.79,1.63s.98.53,1.71.53,1.25-.15,1.63-.45.57-.7.57-1.19-.22-.84-.65-1.1-1.04-.45-1.81-.57c-1.22-.19-2.15-.52-2.78-1s-.94-1.18-.94-2.09c0-.57.15-1.09.45-1.54s.73-.81,1.28-1.06,1.2-.39,1.93-.39c1.13,0,2.03.24,2.7.72s1.08,1.2,1.25,2.15l-1.72.26c-.08-.53-.32-.94-.71-1.25s-.89-.45-1.52-.45Z"/>
        <path class="cls-2" d="M380.46,69.22c.2.56.35.99.43,1.28s.19.67.31,1.14h.04c.13-.58.23-.99.31-1.24s.25-.75.53-1.52l2.06-5.64h1.79l-4.2,11.13c-.34.9-.66,1.59-.98,2.08s-.65.84-1.01,1.04-.78.3-1.28.3c-.18,0-.42-.02-.71-.06s-.54-.09-.75-.13l.36-1.48c.27.1.54.16.79.16.38,0,.69-.09.93-.28s.44-.44.6-.76.29-.65.42-.99.21-.55.23-.62l-3.94-10.38h1.89l2.16,5.98Z"/>
        <path class="cls-2" d="M392.29,68.43c0-1.13.2-2.1.61-2.91s.97-1.44,1.7-1.87,1.58-.64,2.54-.64,1.82.21,2.55.62,1.3,1.03,1.7,1.84.61,1.79.61,2.93-.21,2.12-.62,2.93-.98,1.44-1.71,1.87-1.58.64-2.53.64-1.79-.21-2.52-.62-1.3-1.03-1.71-1.84-.62-1.8-.62-2.96ZM397.13,64.45c-.59,0-1.11.15-1.57.45s-.82.75-1.08,1.35-.4,1.32-.4,2.17.13,1.58.39,2.17.62,1.04,1.08,1.35.99.45,1.59.45,1.16-.16,1.62-.47.82-.77,1.07-1.37.38-1.32.38-2.16-.13-1.57-.39-2.16-.62-1.04-1.08-1.34-1-.45-1.6-.45Z"/>
        <path class="cls-2" d="M405.87,72.42h-.05v5.15h-1.76v-14.33h1.64v1.32h.04c.36-.5.8-.89,1.31-1.15s1.11-.4,1.77-.4c.93,0,1.75.22,2.44.66s1.23,1.07,1.61,1.89.57,1.77.57,2.87-.19,2.03-.56,2.85-.9,1.45-1.57,1.9-1.46.67-2.35.67c-1.3,0-2.33-.48-3.1-1.43ZM408.68,64.44c-.6,0-1.12.17-1.57.5s-.79.79-1.04,1.37-.36,1.23-.36,1.96c0,.86.12,1.6.38,2.22s.61,1.09,1.06,1.42,1,.49,1.62.49,1.12-.17,1.56-.51.76-.81.99-1.41.34-1.29.34-2.07c0-.83-.12-1.54-.37-2.14s-.59-1.05-1.04-1.37-.96-.47-1.56-.47Z"/>
        <path class="cls-2" d="M417.26,61.28h-1.76v-1.99h1.76v1.99ZM417.26,73.6h-1.76v-10.36h1.76v10.36Z"/>
        <path class="cls-2" d="M426.66,73.6v-6.78c0-.75-.19-1.33-.57-1.72s-.91-.59-1.6-.59c-.87,0-1.55.26-2.04.79s-.73,1.37-.73,2.52v5.77h-1.76v-10.36h1.64v1.45c.34-.52.79-.93,1.34-1.23s1.16-.45,1.83-.45c1.2,0,2.1.31,2.71.93s.92,1.5.92,2.66v7.01h-1.76Z"/>
        <path class="cls-2" d="M432.86,61.28h-1.76v-1.99h1.76v1.99ZM432.86,73.6h-1.76v-10.36h1.76v10.36Z"/>
        <path class="cls-2" d="M434.92,68.43c0-1.13.2-2.1.61-2.91s.97-1.44,1.7-1.87,1.58-.64,2.54-.64,1.82.21,2.55.62,1.3,1.03,1.7,1.84.61,1.79.61,2.93-.21,2.12-.62,2.93-.98,1.44-1.71,1.87-1.58.64-2.53.64-1.79-.21-2.52-.62-1.3-1.03-1.71-1.84-.62-1.8-.62-2.96ZM439.76,64.45c-.59,0-1.11.15-1.57.45s-.82.75-1.08,1.35-.4,1.32-.4,2.17.13,1.58.39,2.17.62,1.04,1.08,1.35.99.45,1.59.45,1.16-.16,1.62-.47.82-.77,1.07-1.37.38-1.32.38-2.16-.13-1.57-.39-2.16-.62-1.04-1.08-1.34-1-.45-1.6-.45ZM440.36,61.79h-1.45l1.3-2.74h2.3l-2.16,2.74Z"/>
        <path class="cls-2" d="M453.38,73.6v-6.78c0-.75-.19-1.33-.57-1.72s-.91-.59-1.6-.59c-.87,0-1.55.26-2.04.79s-.73,1.37-.73,2.52v5.77h-1.76v-10.36h1.64v1.45c.34-.52.79-.93,1.34-1.23s1.16-.45,1.83-.45c1.2,0,2.1.31,2.71.93s.92,1.5.92,2.66v7.01h-1.76Z"/>
        <path class="cls-2" d="M465.12,72.42h-.05v5.15h-1.76v-14.33h1.64v1.32h.04c.36-.5.8-.89,1.31-1.15s1.11-.4,1.77-.4c.93,0,1.75.22,2.44.66s1.23,1.07,1.61,1.89.57,1.77.57,2.87-.19,2.03-.56,2.85-.9,1.45-1.57,1.9-1.46.67-2.35.67c-1.3,0-2.33-.48-3.1-1.43ZM467.92,64.44c-.6,0-1.12.17-1.57.5s-.79.79-1.04,1.37-.36,1.23-.36,1.96c0,.86.12,1.6.38,2.22s.61,1.09,1.06,1.42,1,.49,1.62.49,1.12-.17,1.56-.51.76-.81.99-1.41.34-1.29.34-2.07c0-.83-.12-1.54-.37-2.14s-.59-1.05-1.04-1.37-.96-.47-1.56-.47Z"/>
        <path class="cls-2" d="M476.47,70.02c0,.75.19,1.33.56,1.72s.91.59,1.61.59c.58,0,1.09-.13,1.52-.39s.75-.61.94-1.05.29-1.06.29-1.86v-5.78h1.76v10.36h-1.64v-1.44c-.37.55-.83.96-1.36,1.25s-1.14.43-1.8.43c-1.2,0-2.11-.31-2.72-.93s-.91-1.51-.91-2.66v-7.01h1.76v6.78ZM479.38,61.79h-1.45l1.3-2.74h2.3l-2.16,2.74Z"/>
        <path class="cls-2" d="M487.63,64.4h.05c.79-.93,1.82-1.4,3.08-1.4.91,0,1.7.22,2.38.65s1.2,1.05,1.57,1.85.55,1.72.55,2.76c0,1.17-.2,2.17-.6,3.01s-.95,1.48-1.65,1.91-1.5.65-2.39.65c-.65,0-1.24-.13-1.77-.4s-.96-.65-1.29-1.15h-.04v1.3h-1.64v-14.32h1.76v5.12ZM490.58,64.44c-.61,0-1.14.16-1.61.49s-.83.78-1.09,1.37-.39,1.27-.39,2.04c0,1.32.26,2.32.77,3.02s1.27,1.04,2.26,1.04c.59,0,1.11-.16,1.55-.48s.78-.78,1.02-1.38.36-1.31.36-2.13-.11-1.52-.34-2.11-.56-1.05-.99-1.37-.94-.48-1.54-.48Z"/>
        <path class="cls-2" d="M499.07,73.6h-1.76v-14.32h1.76v14.32Z"/>
        <path class="cls-2" d="M503.54,61.28h-1.76v-1.99h1.76v1.99ZM503.54,73.6h-1.76v-10.36h1.76v10.36Z"/>
        <path class="cls-2" d="M510.59,64.45c-1.02,0-1.81.34-2.36,1.04s-.83,1.66-.83,2.92c0,.78.12,1.47.37,2.08s.61,1.07,1.07,1.41,1.02.51,1.65.51c.75,0,1.36-.23,1.85-.69s.78-1.1.9-1.9l1.74.26c-.11.77-.38,1.44-.8,2.01s-.96,1.01-1.61,1.31-1.36.46-2.14.46c-.96,0-1.8-.22-2.53-.66s-1.29-1.07-1.69-1.88-.6-1.77-.6-2.87c0-1.16.2-2.15.6-2.96s.97-1.43,1.7-1.85,1.6-.62,2.61-.62c.74,0,1.41.13,2.01.39s1.11.63,1.5,1.12.65,1.08.78,1.76l-1.7.25c-.16-.66-.47-1.17-.91-1.53s-.98-.55-1.6-.55Z"/>
        <path class="cls-2" d="M525.22,73.6h-1.84c-.1-.22-.18-.4-.21-.54s-.09-.38-.15-.74c-.5.53-1.03.92-1.59,1.16s-1.2.36-1.92.36c-.65,0-1.23-.12-1.72-.38s-.88-.6-1.15-1.05-.41-.97-.41-1.56c0-.89.29-1.6.87-2.13s1.53-.89,2.86-1.09c1.38-.21,2.36-.41,2.95-.6v-.27c0-.58-.08-1.04-.22-1.37s-.39-.58-.72-.73-.77-.22-1.33-.22c-.7,0-1.26.16-1.67.48s-.68.82-.81,1.5l-1.72-.26c.21-1.05.68-1.84,1.4-2.36s1.69-.79,2.89-.79c.92,0,1.66.12,2.24.35s1,.61,1.28,1.13.42,1.23.42,2.11v3.72c0,.64.01,1.14.04,1.49s.08.65.16.91.19.55.36.88ZM520.03,69.11c-.7.12-1.21.33-1.53.62s-.48.66-.48,1.13c0,.5.16.89.48,1.18s.79.42,1.39.42c.51,0,1.04-.16,1.59-.49.38-.23.68-.47.87-.74s.34-.58.42-.96.12-.87.12-1.47v-.37c-.16.07-.51.17-1.06.3s-1.15.26-1.81.38Z"/>
        <path class="cls-2" d="M529.58,73.6h-2.21v-2.2h2.21v2.2Z"/>
      </g>
      <g>
        <path class="cls-1" d="M64.14,79.08c0,1.82-.69,3.24-2.42,3.74-2.27.65-3.71-.54-4.6-2.56-2.42-5.51-5.01-10.96-7.22-16.56-1.14-2.9-2.66-4.05-5.87-3.95-8.16.25-16.33.18-24.49.03-2.7-.05-4.14.8-5.15,3.36-2.14,5.42-4.63,10.7-6.93,16.07-1.06,2.46-2.39,4.77-5.47,3.4-2.79-1.24-2.12-3.59-1.11-5.91C10.07,55.59,19.21,34.46,28.38,13.34c.71-1.63,1.36-3.19,3.69-3.16,1.94.02,2.87.93,3.56,2.54,9.31,21.64,18.64,43.27,27.96,64.91.21.48.37.99.55,1.45ZM31.99,23.18c-4.59,10.41-8.73,19.78-13.06,29.61,8.16,0,15.43-.02,22.7.02,1.89.01,3.26-.17,2.18-2.61-3.82-8.68-7.6-17.38-11.82-27.02Z"/>
        <path class="cls-3" d="M99.53,10.14c13.49.05,21.79,3.57,28.86,10.07,1.8,1.65,4.08,3.68,1.82,6.29-2.19,2.53-4.55.85-6.52-.76-10-8.19-20.91-11.25-33.07-5.38-10.99,5.31-16.35,14.61-16.36,26.54,0,11.56,5.38,20.63,15.84,25.78,10.91,5.38,21.65,4.48,31.55-3,.85-.64,1.63-1.37,2.41-2.09,1.72-1.59,3.64-3.64,5.88-1.35,2.44,2.5.79,4.92-1.21,6.93-13.37,13.41-36.31,13.34-50.63-.15-13.92-13.11-14.95-36.02-2.34-50.09,7.38-8.24,16.41-12.77,23.78-12.78Z"/>
        <path class="cls-1" d="M141.88,46.23c0-10.12.15-20.25-.07-30.37-.1-4.4,1.39-5.9,5.87-5.77,10.47.29,20.95.12,31.43.07,2.27-.01,4.56-.01,4.59,2.97.03,2.99-2.07,3.73-4.71,3.72-8.7-.04-17.4.11-26.1-.08-3.04-.07-4,.86-3.89,3.89.21,6.03.24,12.08,0,18.11-.13,3.21,1.16,3.81,4,3.71,5.14-.19,10.3,0,15.45-.05,2.6-.02,4.92.73,4.96,3.57.03,2.83-2.21,3.67-4.86,3.64-5.33-.07-10.66.05-15.98-.05-2.26-.04-3.63.22-3.55,3.07.18,6.74.16,13.5.01,20.24-.05,2.6.88,3.3,3.4,3.26,8.7-.14,17.4-.03,26.1-.07,2.7-.01,5.33.28,5.17,3.72-.14,3.02-2.59,3.33-5.09,3.32-10.48-.04-20.95-.09-31.43.02-3.92.04-5.36-1.68-5.32-5.48.11-10.48.04-20.96.04-31.44Z"/>
        <path class="cls-1" d="M202.68,46.7c0,10.1,0,20.2,0,30.3,0,2.71.17,5.88-3.53,5.94-3.72.07-3.7-3.08-3.7-5.81,0-20.37-.03-40.75.03-61.12,0-2.54-.55-5.74,3.55-5.8,4.11-.06,3.63,3.08,3.64,5.67.05,10.28.02,20.55.02,30.83Z"/>
      </g>
      <rect class="cls-2" x="241.69" width="2" height="93.26"/>
    </g>
  </g>
</svg>